<svg version="1.2" xmlns="http://www.w3.org/2000/svg" viewBox="0 0 268 504" width="268" height="504"><defs><linearGradient id="P" gradientUnits="userSpaceOnUse"/><linearGradient id="g1" x2="1" href="#P" gradientTransform="matrix(0,12.324,-242.642,0,13.015,3)"><stop stop-color="#454545"/><stop offset=".23" stop-color="#999"/><stop offset="1" stop-color="#fff"/></linearGradient><linearGradient id="g2" x2="1" href="#P" gradientTransform="matrix(-9.461,0,0,-326.168,263.103,88.747)"><stop stop-color="#fff" stop-opacity=".01"/><stop offset=".22" stop-color="#bababa" stop-opacity="1"/><stop offset=".55" stop-color="#fff" stop-opacity=".01"/><stop offset="1" stop-color="#fff" stop-opacity=".01"/></linearGradient><linearGradient id="g3" x2="1" href="#P" gradientTransform="matrix(9.476,0,0,326.679,5.568,88.487)"><stop stop-color="#fff" stop-opacity=".01"/><stop offset=".22" stop-color="#bababa" stop-opacity="1"/><stop offset=".55" stop-color="#fff" stop-opacity=".01"/><stop offset="1" stop-color="#fff" stop-opacity=".01"/></linearGradient><clipPath clipPathUnits="userSpaceOnUse" id="cp1"><path d="m111.68 15.44h-74.41c-11.1 0-19.2 7.57-19.2 17.45v422.39c0 12.88 12.51 24.29 26.64 24.29h179.34c13.61 0 26.64-11.5 26.64-24.29v-421.25c0-11.84-8.79-18.52-19.2-18.59h-75.59c-0.28 0.05-5.47 2.19-7.67 7.57-2.19 5.38-6.61 9.67-11.44 9.67h-5.62c-2.3 0-8.35-2.23-11.41-9.67-3.06-7.44-7.8-7.52-8.08-7.57z"/></clipPath><clipPath clipPathUnits="userSpaceOnUse" id="cp2"><path d="m49 187h172v18h-172z"/></clipPath><clipPath clipPathUnits="userSpaceOnUse" id="cp3"><path d="m49 235h172v18h-172z"/></clipPath><clipPath clipPathUnits="userSpaceOnUse" id="cp4"><path d="m49 283h172v18h-172z"/></clipPath><clipPath clipPathUnits="userSpaceOnUse" id="cp5"><path d="m49 331h172v18h-172z"/></clipPath><clipPath clipPathUnits="userSpaceOnUse" id="cp6"><path d="m49 379h172v18h-172z"/></clipPath><clipPath clipPathUnits="userSpaceOnUse" id="cp7"><path d="m49 427h172v18h-172z"/></clipPath><clipPath clipPathUnits="userSpaceOnUse" id="cp8"><path d="m49 475h172v18h-172z"/></clipPath><clipPath clipPathUnits="userSpaceOnUse" id="cp9"><path d="m33 96h204v56h-204z"/></clipPath></defs><style>.a{fill:#213648}.b{opacity:.4;fill:url(#g1)}.c{opacity:.7;fill:url(#g2)}.d{opacity:.7;fill:url(#g3)}.e{fill:#2e423c}.f{fill:#edf3f8}.g{fill:#fbfcfe}.h{opacity:.7;fill:#36536b}.i{fill:#36536b}.j{fill:#ba4270}.k{fill:#fff}.l{opacity:.5;fill:#fff}.m{opacity:.3;fill:#fff}</style><path fill-rule="evenodd" class="a" d="m38.8 3.6h191.2c18.4 0 33.2 14.2 33.2 31.8v435.2c0 17.6-14.8 31.8-33.2 31.8h-191.2c-18.4 0-33.2-14.2-33.2-31.8v-435.2c0-17.6 14.8-31.8 33.2-31.8z"/><path fill-rule="evenodd" class="b" d="m230.7 3h-192.8q-13.5 0.8-24.9 12.3c4.9-4.2 13.6-10 25.2-10 0 0 184.6 0 192.3 0 11.5 0 20.3 5.8 25.2 10q-11.4-11.5-25-12.3z"/><path fill-rule="evenodd" class="c" d="m258 465.7v-427.7c0-11.5-4.2-15.7-6.7-18.5-2.5-2.7-2.7-4.1 1-2 3.6 2 10.8 8 10.8 20.5v427.7c0 12.4-7.2 18.4-10.8 20.5-3.7 2-3.5 0.6-1-2.1 2.5-2.7 6.7-7 6.7-18.4z"/><path fill-rule="evenodd" class="d" d="m10.7 465.7v-427.7c0-11.5 4.2-15.7 6.7-18.5 2.5-2.7 2.6-4.1-1-2-3.6 2-10.8 8-10.8 20.5v427.7c0 12.4 7.2 18.4 10.8 20.5 3.6 2 3.5 0.6 1-2.1-2.5-2.7-6.7-7-6.7-18.4z"/><path fill-rule="evenodd" class="e" d="m3 106.6c0-1.1 0.9-2 2-2h1c1.1 0 2 0.9 2 2v60.3c0 1.1-0.9 2-2 2h-1c-1.1 0-2-0.9-2-2z"/><path fill-rule="evenodd" class="e" d="m260.5 159c0-1.1 0.9-2 2-2h1c1.1 0 2 0.9 2 2v43c0 1.1-0.9 2-2 2h-1c-1.1 0-2-0.9-2-2z"/><path fill-rule="evenodd" class="f" d="m111.7 15.4h-74.4c-11.1 0-19.2 7.6-19.2 17.5v422.4c0 12.9 12.5 24.3 26.6 24.3h179.3c13.7 0 26.7-11.5 26.7-24.3v-421.3c0-11.8-8.8-18.5-19.2-18.6h-75.6c-0.3 0.1-5.5 2.2-7.7 7.6-2.2 5.4-6.6 9.7-11.4 9.7h-5.6c-2.3 0-8.4-2.3-11.4-9.7-3.1-7.4-7.8-7.5-8.1-7.6z"/><g clip-path="url(#cp1)"><path class="g" d="m33 181c0-2.8 2.2-5 5-5h194c2.8 0 5 2.2 5 5v30c0 2.8-2.2 5-5 5h-194c-2.8 0-5-2.2-5-5z"/><g clip-path="url(#cp2)"><path fill-rule="evenodd" class="h" d="m50 192.8h0.9v7.2h-0.9zm5.2 2.7h-1.2v3.2q0 0.3 0.1 0.5 0 0.1 0.2 0.1 0.1 0 0.3 0h0.6v0.7q-0.1 0-0.3 0-0.2 0.1-0.5 0.1-0.5 0-0.8-0.2-0.3-0.1-0.4-0.4-0.1-0.3-0.1-0.7v-3.3h-0.9v-0.6h0.9l0.2-1.5h0.7v1.5h1.2zm1.7 2.1q0 0.5 0.2 0.9 0.2 0.4 0.5 0.6 0.3 0.2 0.8 0.2 0.5 0 0.9-0.2 0.3-0.2 0.4-0.7h0.9q-0.1 0.6-0.4 0.9-0.3 0.4-0.8 0.6-0.4 0.1-0.9 0.1-0.8 0-1.3-0.3-0.6-0.3-0.9-0.9-0.3-0.6-0.3-1.4 0-0.8 0.3-1.4 0.3-0.6 0.8-1 0.5-0.3 1.3-0.3 0.7 0 1.2 0.3 0.5 0.3 0.8 0.9 0.2 0.6 0.2 1.3v0.4zm0.1-0.6h2.8q0-0.5-0.2-0.8-0.1-0.4-0.4-0.6-0.4-0.2-0.8-0.2-0.5 0-0.8 0.2-0.3 0.2-0.5 0.6-0.2 0.4-0.1 0.8zm4.8 2.9v-5.1h0.9v0.7q0.2-0.3 0.6-0.6 0.4-0.2 1-0.2 0.3 0 0.6 0.1 0.3 0.1 0.5 0.3 0.3 0.2 0.4 0.4 0.2-0.4 0.6-0.6 0.4-0.2 1-0.2 0.2 0 0.5 0.1 0.3 0 0.6 0.3 0.2 0.2 0.4 0.5 0.1 0.4 0.1 1v3.3h-0.9v-3.2q0-0.5-0.1-0.8-0.2-0.2-0.4-0.3-0.3-0.1-0.5-0.1-0.3 0-0.6 0.1-0.2 0.1-0.4 0.3-0.2 0.2-0.2 0.6v3.4h-0.9v-3.5q0-0.3-0.2-0.5-0.1-0.2-0.4-0.3-0.2-0.1-0.5-0.1-0.2 0-0.5 0.1-0.3 0.1-0.5 0.3-0.1 0.2-0.1 0.6v3.4zm12.8-7.1l-0.3 2.2h1.5l0.3-2.3 0.6 0.1-0.3 2.2h1v0.6h-1.1l-0.3 1.4h1.1v0.6h-1.1l-0.4 2.4-0.6-0.1 0.4-2.3h-1.5l-0.3 2.4-0.6-0.1 0.3-2.3h-1.1v-0.6h1.2l0.2-1.4h-1.1v-0.6h1.2l0.4-2.3zm-0.7 4.3h1.5l0.2-1.5h-1.4zm6.8-4.4q1.1 0 1.8 0.9 0.7 1 0.7 2.8 0 1.8-0.7 2.8-0.6 0.9-1.8 0.9-1.2 0-1.9-0.9-0.7-1-0.7-2.8 0-1.2 0.3-2.1 0.3-0.8 0.9-1.2 0.6-0.4 1.4-0.4zm0 6.6q0.7 0 1.1-0.7 0.4-0.7 0.4-2.2 0-1.6-0.4-2.3-0.4-0.6-1.1-0.7-0.8 0-1.2 0.7-0.4 0.7-0.4 2.3 0 1.5 0.4 2.2 0.4 0.7 1.2 0.7zm6-6.6q1.1 0 1.8 0.9 0.7 1 0.7 2.8 0 1.8-0.7 2.8-0.7 0.9-1.9 0.9-1.1 0-1.8-0.9-0.7-1-0.7-2.8 0-1.2 0.3-2.1 0.3-0.8 0.9-1.2 0.6-0.4 1.4-0.4zm0 6.6q0.7 0 1.1-0.7 0.4-0.7 0.4-2.2 0-1.6-0.4-2.3-0.4-0.6-1.2-0.7-0.7 0-1.1 0.7-0.4 0.7-0.4 2.3 0 1.5 0.4 2.2 0.4 0.7 1.2 0.7zm4.8 0.7v-5.8h-1.4v-0.6q0.6 0 1-0.1 0.4 0 0.5-0.2 0.2-0.2 0.2-0.5h0.6v7.2z"/><path fill-rule="evenodd" class="i" d="m197.4 199.5q-1.1-0.7-1.2-2.1l1.9-0.1q0.2 0.7 0.7 1 0.5 0.3 1.3 0.3 0.5 0 0.8-0.1 0.4-0.2 0.6-0.4 0.2-0.3 0.2-0.6 0-0.6-0.3-0.8-0.3-0.3-1-0.4l-1.6-0.4q-1-0.2-1.7-0.8-0.6-0.7-0.6-1.7-0.1-0.9 0.4-1.6 0.5-0.6 1.3-1 0.5-0.2 1.1-0.3v-1.2h1.7v1.2q0.5 0.1 1 0.4 0.7 0.3 1.2 1 0.4 0.6 0.4 1.4h-1.9q-0.1-0.6-0.5-1-0.3-0.3-1-0.3-0.4 0-0.7 0.1-0.3 0.1-0.6 0.2-0.2 0.2-0.3 0.4-0.1 0.2-0.1 0.4 0 0.5 0.3 0.7 0.2 0.2 1 0.4l1.5 0.4q1.3 0.3 1.9 1 0.5 0.8 0.5 1.8 0 0.9-0.4 1.5-0.5 0.6-1.3 0.9-0.5 0.2-1.1 0.3v1.1h-1.6v-1.1q-1.1-0.1-1.9-0.6zm7.6 0.5v-1.4q0-0.7 0.3-1.3 0.2-0.5 0.7-0.9 0.4-0.4 0.9-0.6 0.6-0.3 1.1-0.6 0.5-0.3 1-0.5 0.4-0.3 0.7-0.6 0.2-0.3 0.2-0.8 0-0.5-0.4-0.9-0.4-0.4-1-0.4-0.7 0-1.2 0.5-0.5 0.4-0.6 1.2h-1.9q0.1-0.9 0.5-1.6 0.4-0.8 1.2-1.2 0.8-0.4 2-0.4 1.1 0 1.8 0.3 0.8 0.4 1.2 1 0.4 0.7 0.4 1.5 0 0.7-0.2 1.2-0.3 0.5-0.7 0.9-0.4 0.4-1 0.6-0.5 0.3-1 0.6-0.5 0.2-0.9 0.4-0.5 0.3-0.7 0.6-0.3 0.3-0.3 0.7v0.1h4.8v1.6zm11.5 0.1q-0.9 0-1.7-0.3-0.7-0.3-1.2-0.9-0.5-0.7-0.6-1.5h1.8q0.2 0.6 0.6 0.9 0.4 0.3 1 0.3 0.7 0 1.2-0.3 0.5-0.3 0.7-1 0.3-0.7 0.2-1.8-0.2 0.3-0.5 0.6-0.3 0.2-0.7 0.4-0.5 0.1-1 0.1-1 0-1.7-0.3-0.7-0.4-1.2-1.1-0.4-0.6-0.4-1.5 0-1 0.5-1.7 0.4-0.7 1.2-1.1 0.8-0.4 1.9-0.4 1.2 0 2 0.5 0.9 0.6 1.4 1.7 0.4 1 0.4 2.4 0 1.7-0.5 2.8-0.4 1.1-1.3 1.7-0.9 0.5-2.1 0.5zm0.1-5q0.4 0 0.8-0.2 0.4-0.1 0.6-0.4 0.3-0.3 0.3-0.6 0-0.6-0.2-1.1-0.3-0.4-0.6-0.7-0.4-0.2-0.9-0.2-0.4 0-0.8 0.2-0.3 0.2-0.5 0.6-0.2 0.4-0.2 0.9 0 0.7 0.4 1.1 0.4 0.4 1.1 0.4z"/></g><path class="g" d="m33 229c0-2.8 2.2-5 5-5h194c2.8 0 5 2.2 5 5v30c0 2.8-2.2 5-5 5h-194c-2.8 0-5-2.2-5-5z"/><g clip-path="url(#cp3)"><path fill-rule="evenodd" class="h" d="m50 240.8h0.9v7.2h-0.9zm5.2 2.7h-1.2v3.3q0 0.2 0.1 0.4 0 0.1 0.2 0.1 0.1 0 0.3 0h0.6v0.7q-0.1 0-0.3 0-0.2 0.1-0.5 0.1-0.5 0-0.8-0.2-0.3-0.1-0.4-0.4-0.1-0.3-0.1-0.7v-3.3h-0.9v-0.6h0.9l0.2-1.5h0.7v1.5h1.2zm1.7 2.1q0 0.5 0.2 0.9 0.2 0.4 0.5 0.6 0.3 0.2 0.8 0.2 0.5 0 0.9-0.2 0.3-0.2 0.4-0.7h0.9q-0.1 0.6-0.4 0.9-0.3 0.4-0.8 0.6-0.4 0.2-0.9 0.2-0.8 0-1.3-0.4-0.6-0.3-0.9-0.9-0.3-0.6-0.3-1.4 0-0.8 0.3-1.4 0.3-0.6 0.8-1 0.5-0.3 1.3-0.3 0.7 0 1.2 0.3 0.5 0.3 0.8 0.9 0.2 0.6 0.2 1.3v0.4zm0.1-0.6h2.8q0-0.5-0.2-0.8-0.1-0.4-0.4-0.6-0.4-0.2-0.8-0.2-0.5 0-0.8 0.2-0.3 0.2-0.5 0.6-0.2 0.4-0.1 0.8zm4.8 2.9v-5.1h0.9v0.7q0.2-0.3 0.6-0.6 0.4-0.2 1-0.2 0.3 0 0.6 0.1 0.3 0.1 0.5 0.3 0.3 0.2 0.4 0.4 0.2-0.4 0.6-0.6 0.4-0.2 1-0.2 0.2 0 0.5 0.1 0.3 0 0.6 0.3 0.2 0.2 0.4 0.5 0.1 0.4 0.1 1v3.3h-0.9v-3.2q0-0.5-0.1-0.8-0.2-0.2-0.4-0.3-0.3-0.1-0.5-0.1-0.3 0-0.6 0.1-0.2 0.1-0.4 0.3-0.2 0.2-0.2 0.6v3.4h-0.9v-3.5q0-0.3-0.2-0.5-0.1-0.2-0.4-0.3-0.2-0.1-0.5-0.1-0.2 0-0.5 0.1-0.3 0.1-0.5 0.3-0.1 0.2-0.1 0.6v3.4zm12.8-7.1l-0.3 2.2h1.5l0.3-2.3 0.6 0.1-0.3 2.2h1v0.6h-1.1l-0.3 1.4h1.1v0.6h-1.1l-0.4 2.4-0.6-0.1 0.4-2.3h-1.5l-0.3 2.4-0.6-0.1 0.3-2.3h-1.1v-0.6h1.2l0.2-1.4h-1.1v-0.6h1.2l0.4-2.3zm-0.7 4.3h1.5l0.2-1.5h-1.4zm6.8-4.4q1.1 0 1.8 0.9 0.7 1 0.7 2.8 0 1.8-0.7 2.8-0.6 0.9-1.8 0.9-1.2 0-1.9-0.9-0.7-1-0.7-2.8 0-1.2 0.3-2.1 0.3-0.8 0.9-1.2 0.6-0.4 1.4-0.4zm0 6.6q0.7 0 1.1-0.7 0.4-0.7 0.4-2.2 0-1.6-0.4-2.3-0.4-0.6-1.1-0.7-0.8 0-1.2 0.7-0.4 0.7-0.4 2.3 0 1.5 0.4 2.2 0.4 0.7 1.2 0.7zm6-6.6q1.1 0 1.8 0.9 0.7 1 0.7 2.8 0 1.8-0.7 2.8-0.7 0.9-1.9 0.9-1.1 0-1.8-0.9-0.7-1-0.7-2.8 0-1.2 0.3-2.1 0.3-0.8 0.9-1.2 0.6-0.4 1.4-0.4zm0 6.6q0.7 0 1.1-0.7 0.4-0.7 0.4-2.2 0-1.6-0.4-2.3-0.4-0.6-1.2-0.7-0.7 0-1.1 0.7-0.4 0.7-0.4 2.3 0 1.5 0.4 2.2 0.4 0.7 1.2 0.7zm3.6 0.7v-0.9q0-0.5 0.2-0.9 0.2-0.4 0.5-0.7 0.4-0.3 0.8-0.6 0.4-0.2 0.8-0.4 0.4-0.3 0.7-0.5 0.4-0.2 0.6-0.5 0.2-0.4 0.2-0.8 0-0.5-0.4-0.9-0.4-0.3-1.1-0.3-0.7 0-1.1 0.4-0.4 0.4-0.5 1h-0.9q0-0.6 0.3-1.1 0.3-0.5 0.9-0.8 0.5-0.3 1.4-0.3 0.7 0 1.2 0.2 0.6 0.3 0.9 0.7 0.3 0.5 0.3 1.1 0 0.6-0.2 1-0.3 0.4-0.6 0.7-0.3 0.3-0.7 0.5-0.4 0.2-0.8 0.4-0.4 0.3-0.8 0.5-0.3 0.2-0.5 0.5-0.2 0.3-0.2 0.7v0.2h3.8v0.8z"/><path fill-rule="evenodd" class="i" d="m191.6 247.5q-1.1-0.7-1.2-2.1l2-0.1q0.1 0.7 0.6 1 0.5 0.3 1.3 0.3 0.5 0 0.9-0.1 0.3-0.2 0.5-0.4 0.2-0.3 0.2-0.6 0-0.6-0.3-0.8-0.3-0.3-1-0.4l-1.6-0.4q-1-0.2-1.7-0.8-0.6-0.7-0.6-1.7 0-0.9 0.4-1.6 0.5-0.6 1.4-1 0.5-0.2 1-0.3v-1.2h1.7v1.2q0.5 0.1 1 0.4 0.8 0.3 1.2 1 0.4 0.6 0.4 1.4h-1.9q-0.1-0.6-0.5-1-0.3-0.3-1-0.3-0.4 0-0.7 0.1-0.3 0.1-0.6 0.2-0.2 0.2-0.3 0.4-0.1 0.2-0.1 0.4 0 0.5 0.3 0.7 0.2 0.2 1 0.4l1.5 0.4q1.3 0.3 1.9 1 0.5 0.8 0.5 1.8 0 0.9-0.4 1.5-0.4 0.6-1.3 0.9-0.5 0.2-1.1 0.3v1.1h-1.6v-1.1q-1.1-0.1-1.9-0.6zm9.1 0.5v-7h-1.7v-1.1q0.9 0 1.3-0.2 0.5-0.1 0.8-0.4 0.2-0.3 0.3-0.7h1.2v9.4zm7.5-9.5q1.6 0 2.6 1.2 1 1.3 1 3.6 0 2.4-1 3.6-0.9 1.2-2.6 1.2-1.7 0-2.7-1.2-1-1.2-1-3.6 0-1.5 0.5-2.6 0.4-1.1 1.2-1.7 0.9-0.5 2-0.5zm0 8.1q0.8 0 1.2-0.8 0.4-0.7 0.4-2.5 0-1.8-0.4-2.6-0.4-0.7-1.2-0.7-0.9 0-1.3 0.8-0.4 0.7-0.4 2.5 0 1.8 0.4 2.5 0.4 0.8 1.3 0.8zm5.6-8h6v1.6h-4.5l-0.2 2.2q0.5-0.3 1-0.4 0.5-0.1 1.1-0.1 0.9 0 1.6 0.3 0.8 0.4 1.2 1.1 0.5 0.6 0.5 1.6 0 1-0.5 1.7-0.4 0.8-1.3 1.2-0.8 0.3-1.9 0.3-0.9 0-1.7-0.2-0.8-0.3-1.4-0.8-0.6-0.5-0.9-1.2l1.5-0.8q0.3 0.4 0.6 0.8 0.3 0.3 0.7 0.5 0.4 0.2 1 0.2 0.8 0 1.4-0.4 0.5-0.5 0.5-1.2 0-0.5-0.3-0.8-0.2-0.4-0.6-0.6-0.4-0.2-0.9-0.2-0.3 0-0.6 0.1-0.2 0-0.5 0.1-0.3 0.2-0.6 0.4-0.1 0.1-0.1 0.1 0 0-0.1-0.1l-1.4-0.6z"/></g><path class="g" d="m33 277c0-2.8 2.2-5 5-5h194c2.8 0 5 2.2 5 5v30c0 2.8-2.2 5-5 5h-194c-2.8 0-5-2.2-5-5z"/><g clip-path="url(#cp4)"><path fill-rule="evenodd" class="h" d="m50 288.8h0.9v7.2h-0.9zm5.2 2.7h-1.2v3.3q0 0.2 0.1 0.4 0 0.1 0.2 0.1 0.1 0 0.3 0h0.6v0.7q-0.1 0-0.3 0-0.2 0.1-0.5 0.1-0.5 0-0.8-0.2-0.3-0.1-0.4-0.4-0.1-0.3-0.1-0.7v-3.3h-0.9v-0.6h0.9l0.2-1.5h0.7v1.5h1.2zm1.7 2.1q0 0.5 0.2 0.9 0.2 0.4 0.5 0.6 0.3 0.2 0.8 0.2 0.5 0 0.9-0.2 0.3-0.2 0.4-0.7h0.9q-0.1 0.6-0.4 0.9-0.3 0.4-0.8 0.6-0.4 0.2-0.9 0.2-0.8 0-1.3-0.4-0.6-0.3-0.9-0.9-0.3-0.6-0.3-1.4 0-0.8 0.3-1.4 0.3-0.6 0.8-1 0.5-0.3 1.3-0.3 0.7 0 1.2 0.3 0.5 0.3 0.8 0.9 0.2 0.6 0.2 1.3v0.4zm0.1-0.6h2.8q0-0.5-0.2-0.8-0.1-0.4-0.4-0.6-0.4-0.2-0.8-0.2-0.5 0-0.8 0.2-0.3 0.2-0.5 0.6-0.2 0.4-0.1 0.8zm4.8 2.9v-5.1h0.9v0.7q0.2-0.3 0.6-0.6 0.4-0.2 1-0.2 0.3 0 0.6 0.1 0.3 0.1 0.5 0.3 0.3 0.2 0.4 0.4 0.2-0.4 0.6-0.6 0.4-0.2 1-0.2 0.2 0 0.5 0.1 0.3 0 0.6 0.3 0.2 0.2 0.4 0.5 0.1 0.4 0.1 1v3.3h-0.9v-3.2q0-0.5-0.1-0.8-0.2-0.2-0.4-0.3-0.3-0.1-0.5-0.1-0.3 0-0.6 0.1-0.2 0.1-0.4 0.3-0.2 0.2-0.2 0.6v3.4h-0.9v-3.5q0-0.3-0.2-0.5-0.1-0.2-0.4-0.3-0.2-0.1-0.5-0.1-0.2 0-0.5 0.1-0.3 0.1-0.5 0.3-0.1 0.2-0.1 0.6v3.4zm12.8-7.1l-0.3 2.2h1.5l0.3-2.3 0.6 0.1-0.3 2.2h1v0.6h-1.1l-0.3 1.4h1.1v0.6h-1.1l-0.4 2.4-0.6-0.1 0.4-2.3h-1.5l-0.3 2.4-0.6-0.1 0.3-2.3h-1.1v-0.6h1.2l0.2-1.4h-1.1v-0.6h1.2l0.4-2.3zm-0.7 4.3h1.5l0.2-1.5h-1.4zm6.8-4.4q1.1 0 1.8 0.9 0.7 1 0.7 2.8 0 1.8-0.7 2.8-0.6 0.9-1.8 0.9-1.2 0-1.9-0.9-0.7-1-0.7-2.8 0-1.2 0.3-2.1 0.3-0.8 0.9-1.2 0.6-0.4 1.4-0.4zm0 6.6q0.7 0 1.1-0.7 0.4-0.7 0.4-2.2 0-1.6-0.4-2.3-0.4-0.6-1.1-0.7-0.8 0-1.2 0.7-0.4 0.7-0.4 2.3 0 1.5 0.4 2.2 0.4 0.7 1.2 0.7zm6-6.6q1.1 0 1.8 0.9 0.7 1 0.7 2.8 0 1.8-0.7 2.8-0.7 0.9-1.9 0.9-1.1 0-1.8-0.9-0.7-1-0.7-2.8 0-1.2 0.3-2.1 0.3-0.8 0.9-1.2 0.6-0.4 1.4-0.4zm0 6.6q0.7 0 1.1-0.7 0.4-0.7 0.4-2.2 0-1.6-0.4-2.3-0.4-0.6-1.2-0.7-0.7 0-1.1 0.7-0.4 0.7-0.4 2.3 0 1.5 0.4 2.2 0.4 0.7 1.2 0.7zm3.4-4.4q0-0.7 0.4-1.2 0.3-0.5 0.9-0.8 0.6-0.2 1.2-0.2 0.8 0 1.4 0.2 0.5 0.2 0.9 0.6 0.3 0.4 0.3 1 0 0.6-0.4 1-0.3 0.4-1 0.7 0.5 0.1 0.8 0.4 0.4 0.2 0.6 0.6 0.2 0.3 0.2 0.8 0 0.5-0.2 0.9-0.2 0.4-0.6 0.7-0.4 0.2-0.9 0.4-0.5 0.1-1.1 0.1-0.7 0-1.3-0.3-0.6-0.2-0.9-0.7-0.3-0.5-0.4-1.2h1q0.1 0.7 0.5 1.1 0.5 0.3 1.1 0.3 0.6 0 1-0.2 0.4-0.1 0.6-0.4 0.2-0.3 0.2-0.7 0-0.4-0.3-0.7-0.2-0.3-0.6-0.5-0.4-0.2-0.9-0.2h-0.7v-0.8h0.6q0.5 0 0.9-0.2 0.4-0.1 0.6-0.4 0.2-0.3 0.2-0.6 0-0.3-0.2-0.6-0.2-0.3-0.5-0.4-0.4-0.2-0.9-0.2-0.4 0-0.7 0.2-0.4 0.1-0.6 0.5-0.2 0.3-0.2 0.8z"/><path fill-rule="evenodd" class="i" d="m191.6 295.5q-1-0.7-1.2-2.1l2-0.1q0.2 0.7 0.7 1 0.5 0.3 1.3 0.3 0.4 0 0.8-0.1 0.4-0.2 0.6-0.4 0.2-0.3 0.2-0.6 0-0.6-0.3-0.8-0.4-0.3-1.1-0.4l-1.5-0.4q-1.1-0.2-1.7-0.8-0.7-0.7-0.7-1.7 0-0.9 0.5-1.6 0.5-0.6 1.3-1 0.5-0.2 1.1-0.3v-1.2h1.6v1.2q0.6 0.1 1 0.4 0.8 0.3 1.2 1 0.4 0.6 0.4 1.4h-1.9q-0.1-0.6-0.4-1-0.3-0.3-1.1-0.3-0.4 0-0.7 0.1-0.3 0.1-0.5 0.2-0.2 0.2-0.3 0.4-0.2 0.2-0.2 0.4 0 0.5 0.3 0.7 0.3 0.2 1.1 0.4l1.5 0.4q1.3 0.3 1.8 1 0.6 0.8 0.6 1.8 0 0.9-0.4 1.5-0.5 0.6-1.3 0.9-0.5 0.2-1.1 0.3v1.1h-1.7v-1.1q-1.1-0.1-1.9-0.6zm11.3-9q1 0 1.7 0.3 0.8 0.3 1.2 0.9 0.5 0.6 0.5 1.4 0 0.7-0.4 1.2-0.4 0.6-1 0.8 0.4 0.1 0.8 0.5 0.5 0.3 0.7 0.8 0.3 0.5 0.3 1 0 0.8-0.5 1.4-0.5 0.7-1.3 1-0.9 0.3-2 0.3-1.1 0-2-0.3-0.8-0.3-1.3-1-0.5-0.6-0.5-1.4 0-0.5 0.3-1 0.2-0.5 0.7-0.8 0.4-0.4 0.8-0.5-0.6-0.2-1-0.8-0.4-0.5-0.4-1.2 0-0.8 0.5-1.4 0.4-0.6 1.2-0.9 0.7-0.3 1.7-0.3zm0 3.9q0.6 0 1.1-0.4 0.4-0.3 0.4-0.9 0-0.6-0.4-1-0.5-0.3-1.1-0.3-0.6 0-1.1 0.3-0.4 0.4-0.4 1 0 0.6 0.4 0.9 0.5 0.4 1.1 0.4zm0 4.3q0.8 0 1.3-0.4 0.5-0.3 0.5-1 0-0.4-0.2-0.7-0.3-0.3-0.7-0.5-0.4-0.2-0.9-0.2-0.5 0-0.9 0.2-0.4 0.2-0.7 0.5-0.2 0.3-0.2 0.7 0 0.7 0.5 1 0.5 0.4 1.3 0.4zm6.5 1.3v-7h-1.7v-1.1q0.8 0 1.3-0.2 0.5-0.1 0.8-0.4 0.2-0.3 0.3-0.7h1.2v9.4zm7.4-9.5q1.7 0 2.7 1.2 1 1.3 1 3.6 0 2.4-1 3.6-1 1.2-2.7 1.2-1.7 0-2.6-1.2-1-1.2-1-3.6 0-1.5 0.5-2.6 0.4-1.1 1.2-1.7 0.8-0.5 1.9-0.5zm0 8.1q0.9 0 1.3-0.8 0.4-0.7 0.4-2.5 0-1.8-0.4-2.6-0.4-0.7-1.3-0.7-0.8 0-1.2 0.8-0.4 0.7-0.4 2.5 0 1.8 0.4 2.5 0.4 0.8 1.2 0.8z"/></g><path class="g" d="m33 325c0-2.8 2.2-5 5-5h194c2.8 0 5 2.2 5 5v30c0 2.8-2.2 5-5 5h-194c-2.8 0-5-2.2-5-5z"/><g clip-path="url(#cp5)"><path fill-rule="evenodd" class="h" d="m50 336.8h0.9v7.2h-0.9zm5.2 2.7h-1.2v3.3q0 0.2 0.1 0.4 0 0.1 0.2 0.1 0.1 0 0.3 0h0.6v0.7q-0.1 0-0.3 0-0.2 0.1-0.5 0.1-0.5 0-0.8-0.2-0.3-0.1-0.4-0.4-0.1-0.3-0.1-0.7v-3.3h-0.9v-0.6h0.9l0.2-1.5h0.7v1.5h1.2zm1.7 2.1q0 0.5 0.2 0.9 0.2 0.4 0.5 0.6 0.3 0.2 0.8 0.2 0.5 0 0.9-0.2 0.3-0.2 0.4-0.7h0.9q-0.1 0.6-0.4 0.9-0.3 0.4-0.8 0.6-0.4 0.2-0.9 0.2-0.8 0-1.3-0.4-0.6-0.3-0.9-0.9-0.3-0.6-0.3-1.4 0-0.8 0.3-1.4 0.3-0.6 0.8-1 0.5-0.3 1.3-0.3 0.7 0 1.2 0.3 0.5 0.3 0.8 0.9 0.2 0.6 0.2 1.3v0.4zm0.1-0.6h2.8q0-0.5-0.2-0.8-0.1-0.4-0.4-0.6-0.4-0.2-0.8-0.2-0.5 0-0.8 0.2-0.3 0.2-0.5 0.6-0.2 0.4-0.1 0.8zm4.8 2.9v-5.1h0.9v0.7q0.2-0.3 0.6-0.6 0.4-0.2 1-0.2 0.3 0 0.6 0.1 0.3 0.1 0.5 0.3 0.3 0.2 0.4 0.4 0.2-0.4 0.6-0.6 0.4-0.2 1-0.2 0.2 0 0.5 0.1 0.3 0 0.6 0.3 0.2 0.2 0.4 0.5 0.1 0.4 0.1 1v3.3h-0.9v-3.2q0-0.5-0.1-0.8-0.2-0.2-0.4-0.3-0.3-0.1-0.5-0.1-0.3 0-0.6 0.1-0.2 0.1-0.4 0.3-0.2 0.2-0.2 0.6v3.4h-0.9v-3.5q0-0.3-0.2-0.5-0.1-0.2-0.4-0.3-0.2-0.1-0.5-0.1-0.2 0-0.5 0.1-0.3 0.1-0.5 0.3-0.1 0.2-0.1 0.6v3.4zm12.8-7.1l-0.3 2.2h1.5l0.3-2.3 0.6 0.1-0.3 2.2h1v0.6h-1.1l-0.3 1.4h1.1v0.6h-1.1l-0.4 2.4-0.6-0.1 0.4-2.3h-1.5l-0.3 2.4-0.6-0.1 0.3-2.3h-1.1v-0.6h1.2l0.2-1.4h-1.1v-0.6h1.2l0.4-2.3zm-0.7 4.3h1.5l0.2-1.5h-1.4zm6.8-4.4q1.1 0 1.8 0.9 0.7 1 0.7 2.8 0 1.8-0.7 2.8-0.6 0.9-1.8 0.9-1.2 0-1.9-0.9-0.7-1-0.7-2.8 0-1.2 0.3-2.1 0.3-0.8 0.9-1.2 0.6-0.4 1.4-0.4zm0 6.6q0.7 0 1.1-0.7 0.4-0.7 0.4-2.2 0-1.6-0.4-2.3-0.4-0.6-1.1-0.7-0.8 0-1.2 0.7-0.4 0.7-0.4 2.3 0 1.5 0.4 2.2 0.4 0.7 1.2 0.7zm6-6.6q1.1 0 1.8 0.9 0.7 1 0.7 2.8 0 1.8-0.7 2.8-0.7 0.9-1.9 0.9-1.1 0-1.8-0.9-0.7-1-0.7-2.8 0-1.2 0.3-2.1 0.3-0.8 0.9-1.2 0.6-0.4 1.4-0.4zm0 6.6q0.7 0 1.1-0.7 0.4-0.7 0.4-2.2 0-1.6-0.4-2.3-0.4-0.6-1.2-0.7-0.7 0-1.1 0.7-0.4 0.7-0.4 2.3 0 1.5 0.4 2.2 0.4 0.7 1.2 0.7zm6.7-6.5h1v4.5h1.2v0.9h-1.2v1.8h-0.9v-1.8h-3.4v-0.9zm-2.5 4.6h2.5v-3.4z"/><path fill-rule="evenodd" class="i" d="m183.5 343.5q-1.1-0.7-1.3-2.1l2-0.1q0.2 0.7 0.7 1 0.5 0.3 1.3 0.3 0.5 0 0.8-0.1 0.4-0.2 0.6-0.4 0.2-0.3 0.2-0.6 0-0.6-0.3-0.8-0.4-0.3-1.1-0.4l-1.5-0.4q-1.1-0.2-1.7-0.8-0.7-0.7-0.7-1.7 0-0.9 0.5-1.6 0.5-0.6 1.3-1 0.5-0.2 1.1-0.3v-1.2h1.6v1.2q0.6 0.1 1 0.4 0.8 0.3 1.2 1 0.5 0.6 0.4 1.4h-1.9q-0.1-0.6-0.4-1-0.3-0.3-1.1-0.3-0.4 0-0.7 0.1-0.3 0.1-0.5 0.2-0.2 0.2-0.3 0.4-0.1 0.2-0.1 0.4 0 0.5 0.2 0.7 0.3 0.2 1.1 0.4l1.5 0.4q1.3 0.3 1.8 1 0.6 0.8 0.6 1.8 0 0.9-0.4 1.5-0.5 0.6-1.3 0.9-0.5 0.2-1.1 0.3v1.1h-1.6v-1.1q-1.2-0.1-1.9-0.6zm9.1 0.5v-7h-1.7v-1.1q0.8 0 1.3-0.2 0.5-0.1 0.8-0.4 0.2-0.3 0.2-0.7h1.3v9.4zm7.4-9.5q1.7 0 2.7 1.2 0.9 1.3 0.9 3.6 0 2.4-0.9 3.6-1 1.2-2.7 1.2-1.7 0-2.6-1.2-1-1.2-1-3.6 0-1.5 0.4-2.6 0.5-1.1 1.3-1.7 0.8-0.5 1.9-0.5zm0 8.1q0.9 0 1.3-0.8 0.4-0.7 0.4-2.5 0-1.8-0.4-2.6-0.4-0.7-1.3-0.7-0.8 0-1.2 0.8-0.4 0.7-0.4 2.5 0 1.8 0.4 2.5 0.4 0.8 1.2 0.8zm8.9-8h1.9v5.7h1.4v1.6h-1.4v2.1h-1.9v-2.1h-4.3v-1.5zm-2.5 5.7h2.6v-3.5zm10.9-5.7h1.9v5.7h1.4v1.6h-1.4v2.1h-1.8v-2.1h-4.4v-1.5zm-2.5 5.7h2.6v-3.4z"/></g><path class="g" d="m33 373c0-2.8 2.2-5 5-5h194c2.8 0 5 2.2 5 5v30c0 2.8-2.2 5-5 5h-194c-2.8 0-5-2.2-5-5z"/><g clip-path="url(#cp6)"><path fill-rule="evenodd" class="h" d="m50 384.8h0.9v7.2h-0.9zm5.2 2.7h-1.2v3.3q0 0.2 0.1 0.4 0 0.1 0.2 0.1 0.1 0 0.3 0h0.6v0.7q-0.1 0-0.3 0-0.2 0.1-0.5 0.1-0.5 0-0.8-0.2-0.3-0.1-0.4-0.4-0.1-0.3-0.1-0.7v-3.3h-0.9v-0.6h0.9l0.2-1.5h0.7v1.5h1.2zm1.7 2.1q0 0.5 0.2 0.9 0.2 0.4 0.5 0.6 0.3 0.2 0.8 0.2 0.5 0 0.9-0.2 0.3-0.2 0.4-0.7h0.9q-0.1 0.6-0.4 0.9-0.3 0.4-0.8 0.6-0.4 0.2-0.9 0.2-0.8 0-1.3-0.4-0.6-0.3-0.9-0.9-0.3-0.6-0.3-1.4 0-0.8 0.3-1.4 0.3-0.6 0.8-1 0.5-0.3 1.3-0.3 0.7 0 1.2 0.3 0.5 0.3 0.8 0.9 0.2 0.6 0.2 1.3v0.4zm0.1-0.6h2.8q0-0.5-0.2-0.8-0.1-0.4-0.4-0.6-0.4-0.2-0.8-0.2-0.5 0-0.8 0.2-0.3 0.2-0.5 0.6-0.2 0.4-0.1 0.8zm4.8 2.9v-5.1h0.9v0.7q0.2-0.3 0.6-0.6 0.4-0.2 1-0.2 0.3 0 0.6 0.1 0.3 0.1 0.5 0.3 0.3 0.2 0.4 0.4 0.2-0.4 0.6-0.6 0.4-0.2 1-0.2 0.2 0 0.5 0.1 0.3 0 0.6 0.3 0.2 0.2 0.4 0.5 0.1 0.4 0.1 1v3.3h-0.9v-3.2q0-0.5-0.1-0.8-0.2-0.2-0.4-0.3-0.3-0.1-0.5-0.1-0.3 0-0.6 0.1-0.2 0.1-0.4 0.3-0.2 0.2-0.2 0.6v3.4h-0.9v-3.5q0-0.3-0.2-0.5-0.1-0.2-0.4-0.3-0.2-0.1-0.5-0.1-0.2 0-0.5 0.1-0.3 0.1-0.5 0.3-0.1 0.2-0.1 0.6v3.4zm12.8-7.1l-0.3 2.2h1.5l0.3-2.3 0.6 0.1-0.3 2.2h1v0.6h-1.1l-0.3 1.4h1.1v0.6h-1.1l-0.4 2.4-0.6-0.1 0.4-2.3h-1.5l-0.3 2.4-0.6-0.1 0.3-2.3h-1.1v-0.6h1.2l0.2-1.4h-1.1v-0.6h1.2l0.4-2.3zm-0.7 4.3h1.5l0.2-1.5h-1.4zm6.8-4.4q1.1 0 1.8 0.9 0.7 1 0.7 2.8 0 1.8-0.7 2.8-0.6 0.9-1.8 0.9-1.2 0-1.9-0.9-0.7-1-0.7-2.8 0-1.2 0.3-2.1 0.3-0.8 0.9-1.2 0.6-0.4 1.4-0.4zm0 6.6q0.7 0 1.1-0.7 0.4-0.7 0.4-2.2 0-1.6-0.4-2.3-0.4-0.6-1.1-0.6-0.8-0.1-1.2 0.7-0.4 0.6-0.4 2.2 0 1.5 0.4 2.2 0.4 0.7 1.2 0.7zm6-6.6q1.1 0 1.8 0.9 0.7 1 0.7 2.8 0 1.8-0.7 2.8-0.7 0.9-1.9 0.9-1.1 0-1.8-0.9-0.7-1-0.7-2.8 0-1.2 0.3-2.1 0.3-0.8 0.9-1.2 0.6-0.4 1.4-0.4zm0 6.6q0.7 0 1.1-0.7 0.4-0.7 0.4-2.2 0-1.6-0.4-2.3-0.4-0.6-1.2-0.6-0.7-0.1-1.1 0.7-0.4 0.6-0.4 2.2 0 1.5 0.4 2.2 0.4 0.7 1.2 0.7zm4.1-6.5h4.3v0.8h-3.5l-0.2 2.3q0.4-0.3 0.8-0.5 0.4-0.1 0.9-0.1 0.7 0 1.2 0.3 0.6 0.2 0.9 0.7 0.4 0.6 0.4 1.3 0 0.8-0.4 1.3-0.3 0.6-0.9 0.9-0.6 0.3-1.4 0.3-0.6 0-1.2-0.2-0.6-0.3-1-0.7-0.4-0.4-0.6-0.9l0.8-0.4q0.2 0.4 0.5 0.8 0.2 0.3 0.6 0.5 0.4 0.1 0.9 0.1 0.7 0 1.2-0.4 0.5-0.5 0.5-1.2 0-0.5-0.3-0.9-0.2-0.3-0.5-0.5-0.4-0.2-0.9-0.2-0.3 0-0.5 0-0.3 0.1-0.5 0.2-0.3 0.2-0.5 0.5-0.1 0-0.1 0 0 0 0 0l-0.8-0.3z"/><path fill-rule="evenodd" class="i" d="m197.3 391.5q-1.1-0.7-1.2-2.1l2-0.1q0.1 0.7 0.6 1 0.6 0.3 1.3 0.3 0.5 0 0.9-0.1 0.3-0.2 0.5-0.4 0.2-0.3 0.2-0.6 0-0.6-0.3-0.8-0.3-0.3-1-0.4l-1.6-0.4q-1-0.2-1.7-0.8-0.6-0.7-0.6-1.7 0-0.9 0.4-1.6 0.5-0.6 1.4-1 0.5-0.2 1-0.3v-1.2h1.7v1.2q0.5 0.1 1 0.4 0.8 0.3 1.2 1 0.4 0.6 0.4 1.4h-1.9q-0.1-0.6-0.5-1-0.3-0.3-1-0.3-0.4 0-0.7 0.1-0.3 0.1-0.6 0.2-0.2 0.2-0.3 0.4-0.1 0.2-0.1 0.4 0 0.5 0.3 0.7 0.3 0.2 1 0.4l1.5 0.4q1.3 0.3 1.9 1 0.6 0.8 0.6 1.8 0 0.9-0.5 1.5-0.4 0.6-1.3 0.9-0.5 0.2-1.1 0.3v1.1h-1.6v-1.1q-1.1-0.1-1.9-0.6zm11.7-8.9h1.9v5.7h1.4v1.6h-1.4v2.1h-1.8v-2.1h-4.4v-1.5zm-2.5 5.7h2.6v-3.5zm10.3-5.8q1.7 0 2.7 1.2 0.9 1.3 0.9 3.6 0 2.4-0.9 3.6-1 1.3-2.7 1.3-1.7 0-2.7-1.3-0.9-1.2-0.9-3.6 0-1.5 0.4-2.6 0.5-1.1 1.3-1.7 0.8-0.5 1.9-0.5zm0 8.1q0.8 0 1.2-0.7 0.4-0.8 0.4-2.6 0-1.8-0.4-2.5-0.4-0.8-1.2-0.8-0.8 0-1.2 0.8-0.4 0.8-0.4 2.5 0 1.8 0.4 2.5 0.4 0.8 1.2 0.8z"/></g><path class="g" d="m33 421c0-2.8 2.2-5 5-5h194c2.8 0 5 2.2 5 5v30c0 2.8-2.2 5-5 5h-194c-2.8 0-5-2.2-5-5z"/><g clip-path="url(#cp7)"><path fill-rule="evenodd" class="h" d="m50 432.8h0.9v7.2h-0.9zm5.2 2.7h-1.2v3.3q0 0.2 0.1 0.4 0 0.1 0.2 0.1 0.1 0 0.3 0h0.6v0.7q-0.1 0-0.3 0-0.2 0.1-0.5 0.1-0.5 0-0.8-0.2-0.3-0.1-0.4-0.4-0.1-0.3-0.1-0.7v-3.3h-0.9v-0.6h0.9l0.2-1.5h0.7v1.5h1.2zm1.7 2.1q0 0.5 0.2 0.9 0.2 0.4 0.5 0.6 0.3 0.2 0.8 0.2 0.5 0 0.9-0.2 0.3-0.2 0.4-0.7h0.9q-0.1 0.6-0.4 0.9-0.3 0.4-0.8 0.6-0.4 0.2-0.9 0.2-0.8 0-1.3-0.4-0.6-0.3-0.9-0.9-0.3-0.6-0.3-1.4 0-0.8 0.3-1.4 0.3-0.6 0.8-1 0.5-0.3 1.3-0.3 0.7 0 1.2 0.3 0.5 0.3 0.8 0.9 0.2 0.6 0.2 1.3v0.4zm0.1-0.6h2.8q0-0.5-0.2-0.8-0.1-0.4-0.4-0.6-0.4-0.2-0.8-0.2-0.5 0-0.8 0.2-0.3 0.2-0.5 0.6-0.2 0.4-0.1 0.8zm4.8 2.9v-5.1h0.9v0.7q0.2-0.3 0.6-0.6 0.4-0.2 1-0.2 0.3 0 0.6 0.1 0.3 0.1 0.5 0.3 0.3 0.2 0.4 0.4 0.2-0.4 0.6-0.6 0.4-0.2 1-0.2 0.2 0 0.5 0.1 0.3 0 0.6 0.3 0.2 0.2 0.4 0.5 0.1 0.4 0.1 1v3.3h-0.9v-3.2q0-0.5-0.1-0.8-0.2-0.2-0.4-0.3-0.3-0.1-0.5-0.1-0.3 0-0.6 0.1-0.2 0.1-0.4 0.3-0.2 0.2-0.2 0.6v3.4h-0.9v-3.5q0-0.3-0.2-0.5-0.1-0.2-0.4-0.3-0.2-0.1-0.5-0.1-0.2 0-0.5 0.1-0.3 0.1-0.5 0.3-0.1 0.2-0.1 0.6v3.4zm12.8-7.1l-0.3 2.2h1.5l0.3-2.3 0.6 0.1-0.3 2.2h1v0.6h-1.1l-0.3 1.4h1.1v0.6h-1.1l-0.4 2.4-0.6-0.1 0.4-2.3h-1.5l-0.3 2.4-0.6-0.1 0.3-2.3h-1.1v-0.6h1.2l0.2-1.4h-1.1v-0.6h1.2l0.4-2.3zm-0.7 4.3h1.5l0.2-1.5h-1.4zm6.8-4.4q1.1 0 1.8 0.9 0.7 1 0.7 2.8 0 1.8-0.7 2.8-0.6 0.9-1.8 0.9-1.2 0-1.9-0.9-0.7-1-0.7-2.8 0-1.2 0.3-2.1 0.3-0.8 0.9-1.2 0.6-0.4 1.4-0.4zm0 6.6q0.7 0 1.1-0.7 0.4-0.7 0.4-2.2 0-1.6-0.4-2.3-0.4-0.6-1.1-0.6-0.8-0.1-1.2 0.7-0.4 0.6-0.4 2.2 0 1.5 0.4 2.2 0.4 0.7 1.2 0.7zm6-6.6q1.1 0 1.8 0.9 0.7 1 0.7 2.8 0 1.8-0.7 2.8-0.7 0.9-1.9 0.9-1.1 0-1.8-0.9-0.7-1-0.7-2.8 0-1.2 0.3-2.1 0.3-0.8 0.9-1.2 0.6-0.4 1.4-0.4zm0 6.6q0.7 0 1.1-0.7 0.4-0.7 0.4-2.2 0-1.6-0.4-2.3-0.4-0.6-1.2-0.6-0.7-0.1-1.1 0.7-0.4 0.6-0.4 2.2 0 1.5 0.4 2.2 0.4 0.7 1.2 0.7zm6.2-6.6q0.6 0 1.1 0.2 0.5 0.2 0.8 0.6 0.4 0.5 0.4 1.1h-0.8q-0.2-0.6-0.6-0.9-0.3-0.3-0.9-0.3-0.7 0-1.1 0.4-0.4 0.4-0.6 1.1-0.2 0.7-0.1 1.7 0.1-0.4 0.4-0.7 0.3-0.2 0.6-0.4 0.4-0.1 0.8-0.1 0.7-0.1 1.3 0.2 0.5 0.3 0.8 0.8 0.3 0.5 0.3 1.2 0 0.8-0.3 1.3-0.3 0.6-0.9 0.9-0.5 0.3-1.3 0.3-0.8 0-1.5-0.4-0.6-0.5-0.9-1.3-0.4-0.8-0.4-1.9 0-1.2 0.4-2 0.3-0.9 0.9-1.4 0.7-0.4 1.6-0.4zm-0.1 3.4q-0.4 0-0.8 0.2-0.3 0.2-0.6 0.5-0.2 0.3-0.2 0.7 0 0.5 0.2 0.9 0.2 0.5 0.5 0.7 0.4 0.2 0.9 0.2 0.4 0 0.8-0.2 0.3-0.2 0.5-0.5 0.2-0.4 0.2-0.9 0-0.5-0.2-0.9-0.1-0.3-0.5-0.5-0.3-0.2-0.8-0.2z"/><path fill-rule="evenodd" class="i" d="m180.3 439.5q-1.1-0.7-1.3-2.1l2-0.1q0.2 0.7 0.7 1 0.5 0.3 1.3 0.3 0.5 0 0.8-0.1 0.4-0.2 0.6-0.4 0.2-0.3 0.2-0.6 0-0.6-0.3-0.8-0.4-0.3-1.1-0.4l-1.5-0.4q-1.1-0.2-1.7-0.8-0.7-0.7-0.7-1.7 0-0.9 0.5-1.6 0.5-0.6 1.3-1 0.5-0.2 1.1-0.3v-1.2h1.6v1.2q0.6 0.1 1 0.4 0.8 0.3 1.2 1 0.5 0.6 0.4 1.4h-1.9q-0.1-0.6-0.4-1-0.3-0.3-1.1-0.3-0.4 0-0.7 0.1-0.3 0.1-0.5 0.2-0.2 0.2-0.3 0.4-0.1 0.2-0.1 0.4 0 0.5 0.2 0.7 0.3 0.2 1.1 0.4l1.5 0.4q1.3 0.3 1.8 1 0.6 0.8 0.6 1.8 0 0.9-0.4 1.5-0.5 0.6-1.3 0.9-0.5 0.2-1.1 0.3v1.1h-1.6v-1.1q-1.2-0.1-1.9-0.6zm7.6 0.5v-1.4q0-0.7 0.3-1.3 0.2-0.5 0.7-0.9 0.4-0.4 0.9-0.6 0.5-0.3 1.1-0.6 0.5-0.3 0.9-0.5 0.5-0.3 0.7-0.6 0.3-0.3 0.3-0.8 0-0.5-0.4-0.9-0.4-0.4-1.1-0.4-0.7 0-1.2 0.5-0.5 0.4-0.6 1.2h-1.8q0-0.9 0.4-1.6 0.4-0.8 1.2-1.2 0.9-0.4 2.1-0.4 1 0 1.8 0.3 0.8 0.4 1.2 1 0.4 0.7 0.4 1.5 0 0.7-0.3 1.2-0.2 0.5-0.6 0.9-0.5 0.4-1 0.6-0.5 0.3-1 0.6-0.5 0.2-1 0.4-0.4 0.3-0.6 0.6-0.3 0.3-0.3 0.7v0.1h4.8v1.6zm9-9.4h6l-0.1 1.6h-4.4l-0.2 2.2q0.5-0.3 1-0.4 0.4-0.1 1-0.1 0.9 0 1.7 0.3 0.7 0.4 1.2 1.1 0.4 0.6 0.4 1.6 0 1-0.4 1.7-0.5 0.8-1.3 1.2-0.8 0.3-2 0.3-0.9 0-1.7-0.2-0.8-0.3-1.3-0.8-0.6-0.5-0.9-1.2l1.5-0.8q0.2 0.4 0.5 0.8 0.3 0.3 0.8 0.5 0.4 0.2 0.9 0.2 0.9 0 1.4-0.4 0.5-0.5 0.5-1.2 0-0.5-0.2-0.8-0.2-0.4-0.6-0.6-0.4-0.2-1-0.2-0.3 0-0.5 0.1-0.3 0-0.6 0.1-0.2 0.2-0.5 0.4-0.1 0.1-0.2 0.1 0 0-0.1-0.1l-1.4-0.6zm11.7-0.2q0.8 0 1.6 0.4 0.7 0.3 1.2 0.9 0.5 0.6 0.5 1.5h-1.7q-0.2-0.6-0.6-0.9-0.4-0.4-1-0.4-0.7 0-1.1 0.4-0.5 0.4-0.7 1.1-0.2 0.7-0.1 1.6 0.2-0.3 0.6-0.5 0.3-0.2 0.7-0.4 0.4-0.1 0.9-0.1 0.9 0 1.6 0.4 0.8 0.3 1.2 1 0.4 0.6 0.4 1.5 0 0.9-0.5 1.7-0.4 0.7-1.2 1.1-0.9 0.4-1.9 0.4-1.2 0-2.1-0.6-0.9-0.5-1.3-1.6-0.5-1-0.5-2.4 0-1.6 0.5-2.7 0.5-1.1 1.3-1.7 0.9-0.7 2.2-0.7zm-0.2 5q-0.4 0-0.8 0.2-0.3 0.2-0.6 0.5-0.2 0.3-0.2 0.5 0 0.7 0.2 1.1 0.2 0.5 0.6 0.7 0.3 0.3 0.8 0.3 0.5 0 0.8-0.2 0.4-0.3 0.6-0.6 0.3-0.4 0.3-0.9 0-0.5-0.3-0.9-0.2-0.3-0.5-0.5-0.4-0.2-0.9-0.2zm8.6-5q0.9 0 1.6 0.4 0.8 0.3 1.3 0.9 0.4 0.6 0.5 1.5h-1.8q-0.1-0.6-0.5-0.9-0.4-0.4-1.1-0.4-0.6 0-1.1 0.4-0.4 0.4-0.6 1.1-0.2 0.7-0.1 1.6 0.2-0.3 0.5-0.5 0.4-0.2 0.8-0.4 0.4-0.1 0.8-0.1 1 0 1.7 0.4 0.7 0.3 1.1 1 0.4 0.6 0.4 1.5 0 0.9-0.4 1.7-0.5 0.7-1.3 1.1-0.8 0.4-1.9 0.4-1.2 0-2-0.6-0.9-0.5-1.4-1.6-0.4-1-0.4-2.4 0-1.6 0.4-2.7 0.5-1.1 1.4-1.7 0.9-0.7 2.1-0.7zm-0.1 5q-0.4 0-0.8 0.2-0.4 0.2-0.6 0.5-0.3 0.3-0.3 0.5 0 0.7 0.2 1.1 0.3 0.5 0.6 0.7 0.4 0.3 0.9 0.3 0.4 0 0.8-0.3 0.4-0.2 0.6-0.5 0.2-0.4 0.2-0.9 0-0.5-0.2-0.9-0.2-0.3-0.6-0.5-0.4-0.2-0.8-0.2z"/></g><path class="g" d="m33 469c0-2.8 2.2-5 5-5h194c2.8 0 5 2.2 5 5v30c0 2.8-2.2 5-5 5h-194c-2.8 0-5-2.2-5-5z"/><g clip-path="url(#cp8)"><path fill-rule="evenodd" class="i" d="m183.2 487.5q-1-0.7-1.2-2.1l2-0.1q0.1 0.7 0.6 1 0.6 0.3 1.3 0.3 0.5 0 0.9-0.1 0.3-0.2 0.5-0.4 0.3-0.3 0.3-0.6 0-0.6-0.4-0.8-0.3-0.3-1-0.4l-1.5-0.4q-1.1-0.2-1.8-0.8-0.6-0.7-0.6-1.7 0-0.9 0.5-1.6 0.4-0.6 1.3-1 0.5-0.2 1-0.3v-1.2h1.7v1.2q0.5 0.1 1 0.4 0.8 0.3 1.2 1 0.4 0.6 0.4 1.4h-1.9q-0.1-0.6-0.4-1-0.4-0.3-1.1-0.3-0.4 0-0.7 0.1-0.3 0.1-0.5 0.2-0.3 0.2-0.4 0.4-0.1 0.2-0.1 0.4 0 0.5 0.3 0.7 0.3 0.2 1 0.4l1.6 0.4q1.2 0.3 1.8 1 0.6 0.8 0.6 1.8 0 0.9-0.5 1.5-0.4 0.6-1.2 0.9-0.5 0.2-1.2 0.3v1.1h-1.6v-1.1q-1.1-0.1-1.9-0.6zm11.8-8.9h1.8v5.7h1.5v1.6h-1.5v2.1h-1.8v-2.1h-4.3v-1.5zm-2.6 5.7h2.6v-3.5zm8.4 3.7v-7h-1.7v-1.1q0.8 0 1.3-0.1 0.5-0.2 0.7-0.5 0.3-0.3 0.3-0.7h1.3v9.4zm7.2 0.2q-0.8 0-1.6-0.4-0.8-0.3-1.2-0.9-0.5-0.6-0.6-1.5h1.8q0.1 0.6 0.5 0.9 0.4 0.4 1.1 0.4 0.6 0 1.1-0.4 0.6-0.3 0.8-1 0.3-0.7 0.2-1.8-0.2 0.3-0.5 0.6-0.3 0.3-0.8 0.4-0.4 0.1-0.9 0.1-1 0-1.7-0.3-0.7-0.4-1.2-1-0.4-0.7-0.4-1.6 0-1 0.5-1.7 0.4-0.7 1.2-1.1 0.8-0.4 1.8-0.4 1.2 0 2.1 0.6 0.9 0.5 1.3 1.6 0.5 1 0.5 2.4 0 1.7-0.5 2.8-0.4 1.1-1.3 1.7-0.9 0.6-2.2 0.6zm0.2-5.1q0.4 0 0.8-0.1 0.4-0.2 0.6-0.5 0.2-0.3 0.2-0.6 0-0.6-0.2-1-0.2-0.5-0.5-0.7-0.4-0.3-0.9-0.3-0.4 0-0.8 0.2-0.3 0.2-0.5 0.6-0.2 0.4-0.2 0.9 0 0.7 0.4 1.1 0.4 0.4 1.1 0.4zm8.3 5.1q-0.9 0-1.7-0.4-0.7-0.3-1.2-0.9-0.5-0.6-0.5-1.5h1.8q0.1 0.6 0.5 0.9 0.4 0.4 1 0.4 0.7 0 1.2-0.4 0.5-0.3 0.7-1 0.3-0.7 0.2-1.8-0.2 0.3-0.5 0.6-0.3 0.3-0.7 0.4-0.5 0.1-1 0.1-0.9 0-1.7-0.3-0.7-0.4-1.1-1-0.5-0.7-0.5-1.6 0-1 0.5-1.7 0.4-0.7 1.2-1.1 0.8-0.4 1.9-0.4 1.2 0 2 0.6 0.9 0.5 1.4 1.6 0.4 1 0.4 2.4 0 1.7-0.4 2.8-0.5 1.1-1.4 1.7-0.9 0.6-2.1 0.6zm0.1-5.1q0.4 0 0.8-0.1 0.4-0.2 0.6-0.5 0.3-0.3 0.3-0.6 0-0.6-0.2-1-0.2-0.5-0.6-0.7-0.4-0.3-0.9-0.3-0.4 0-0.8 0.2-0.3 0.2-0.5 0.6-0.2 0.4-0.2 0.9 0 0.7 0.4 1.1 0.4 0.4 1.1 0.4z"/></g><path class="i" d="m18.1 15.4h233v114h-233z"/></g><g clip-path="url(#cp9)"><path class="g" d="m33 101c0-2.8 2.2-5 5-5h194c2.8 0 5 2.2 5 5v46c0 2.8-2.2 5-5 5h-194c-2.8 0-5-2.2-5-5z"/><path fill-rule="evenodd" class="h" d="m49.7 121.6v-0.8h5.5v0.8h-2.2v6.4h-1v-6.4zm7.8 6.5q-0.7 0-1.3-0.3-0.5-0.3-0.8-0.9-0.3-0.6-0.3-1.5 0-0.8 0.3-1.4 0.3-0.6 0.8-0.9 0.5-0.4 1.3-0.4 0.7 0 1.2 0.3 0.6 0.4 0.9 1 0.2 0.6 0.2 1.4 0 0.8-0.2 1.4-0.3 0.6-0.8 1-0.5 0.3-1.3 0.3zm0-0.7q0.5 0 0.8-0.3 0.3-0.2 0.5-0.6 0.1-0.5 0.1-1.1 0-0.5-0.1-1-0.2-0.4-0.5-0.7-0.3-0.2-0.8-0.2-0.5 0-0.8 0.2-0.3 0.2-0.5 0.7-0.2 0.4-0.2 1 0 0.6 0.2 1 0.1 0.5 0.5 0.7 0.3 0.3 0.8 0.3zm5.9-3.9h-1.1v3.2q0 0.3 0 0.4 0.1 0.2 0.2 0.2 0.2 0 0.4 0h0.6v0.6q-0.1 0.1-0.3 0.1-0.2 0-0.5 0-0.5 0-0.8-0.1-0.3-0.2-0.4-0.5-0.2-0.2-0.2-0.6v-3.3h-0.8v-0.7h0.9l0.2-1.5h0.7v1.5h1.1zm2.7 4.6q-0.5 0-0.9-0.2-0.4-0.1-0.6-0.5-0.2-0.3-0.2-0.8 0-0.8 0.6-1.3 0.6-0.4 1.9-0.4h0.9v-0.4q0-0.5-0.3-0.8-0.2-0.3-0.8-0.3-0.5 0-0.8 0.2-0.4 0.2-0.5 0.7h-0.8q0-0.5 0.3-0.8 0.3-0.4 0.7-0.6 0.5-0.2 1.1-0.2 0.7 0 1.1 0.2 0.5 0.2 0.7 0.6 0.2 0.4 0.2 0.9v3.6h-0.8v-0.9q-0.3 0.6-0.8 0.8-0.5 0.2-1 0.2zm0.3-0.6q0.2 0 0.5-0.1 0.2-0.1 0.4-0.3 0.3-0.2 0.4-0.4 0.1-0.2 0.1-0.4v-0.9l-0.7 0.1q-0.6 0-1 0.1-0.4 0.1-0.6 0.3-0.2 0.3-0.2 0.6 0 0.5 0.3 0.7 0.3 0.3 0.8 0.3zm5.1 0.6q-0.4 0-0.7-0.1-0.2-0.1-0.4-0.3-0.1-0.2-0.1-0.5-0.1-0.2-0.1-0.5v-6.1h0.9v6q0 0.4 0.2 0.6 0.1 0.2 0.4 0.2h0.3v0.6q-0.1 0-0.3 0.1-0.1 0-0.2 0zm3.8 1.5v-6.7h1v0.8q0.1-0.1 0.2-0.3 0.1-0.2 0.4-0.3 0.2-0.2 0.4-0.3 0.3 0 0.7-0.1 0.6 0 1.1 0.3 0.4 0.3 0.7 0.9 0.3 0.6 0.3 1.5 0 0.9-0.3 1.5-0.2 0.6-0.7 0.9-0.5 0.3-1.2 0.3-0.3 0-0.6-0.1-0.3-0.1-0.5-0.2-0.2-0.2-0.3-0.4-0.1-0.1-0.2-0.3v2.5zm2.4-2.2q0.6 0 1-0.5 0.4-0.5 0.4-1.5 0-0.9-0.4-1.4-0.3-0.5-1-0.5-0.8 0-1.1 0.5-0.4 0.5-0.4 1.4 0 0.6 0.2 1 0.1 0.5 0.4 0.7 0.4 0.3 0.9 0.3zm4.8 0.7q-0.5 0-0.9-0.2-0.4-0.1-0.6-0.5-0.2-0.3-0.2-0.8 0-0.8 0.6-1.3 0.6-0.4 1.9-0.4h0.9v-0.4q0-0.5-0.2-0.8-0.3-0.3-0.9-0.3-0.5 0-0.8 0.2-0.3 0.2-0.4 0.7h-0.9q0.1-0.5 0.3-0.8 0.3-0.4 0.7-0.6 0.5-0.2 1.1-0.2 0.7 0 1.1 0.2 0.5 0.2 0.7 0.6 0.2 0.4 0.2 0.9v3.6h-0.8v-0.9q-0.3 0.6-0.8 0.8-0.4 0.2-1 0.2zm0.3-0.6q0.2 0 0.5-0.1 0.3-0.1 0.5-0.3 0.2-0.2 0.3-0.4 0.1-0.2 0.1-0.4v-0.9l-0.7 0.1q-0.6 0-1 0.1-0.4 0.1-0.6 0.3-0.2 0.3-0.2 0.6 0 0.5 0.3 0.7 0.3 0.3 0.8 0.3zm4.2 2.2q-0.5 0-0.6-0.1-0.2-0.1-0.2-0.1v-0.6l0.5 0.1q0.3 0 0.5-0.1 0.2 0 0.3-0.1 0.1-0.1 0.2-0.2 0-0.1 0.1-0.2l0.2-0.5-2.1-5h1l1.5 3.9 1.5-3.9h0.9l-2.2 5.5q-0.2 0.5-0.4 0.8-0.3 0.3-0.6 0.4-0.3 0.1-0.6 0.1zm4.7-1.7v-5.1h0.9v0.7q0.2-0.3 0.6-0.6 0.4-0.3 1-0.3 0.3 0.1 0.5 0.1 0.3 0.1 0.6 0.3 0.2 0.2 0.4 0.5 0.2-0.4 0.6-0.6 0.4-0.3 0.9-0.3 0.3 0 0.6 0.1 0.3 0.1 0.6 0.3 0.2 0.2 0.4 0.6 0.1 0.4 0.1 0.9v3.4h-0.9v-3.3q0-0.4-0.2-0.7-0.1-0.3-0.3-0.4-0.3-0.1-0.6-0.1-0.2 0-0.5 0.1-0.2 0.1-0.4 0.4-0.2 0.2-0.2 0.6v3.4h-0.9v-3.5q0-0.3-0.2-0.5-0.2-0.3-0.4-0.4-0.3-0.1-0.5-0.1-0.3 0-0.5 0.1-0.3 0.1-0.5 0.4-0.2 0.2-0.2 0.6v3.4zm9.3-2.4q0 0.5 0.1 0.9 0.2 0.4 0.5 0.7 0.4 0.2 0.9 0.2 0.5 0 0.8-0.2 0.4-0.3 0.5-0.7h0.9q-0.1 0.5-0.5 0.9-0.3 0.4-0.8 0.5-0.4 0.2-0.9 0.2-0.7 0-1.3-0.3-0.5-0.3-0.8-0.9-0.4-0.6-0.4-1.4 0-0.8 0.3-1.4 0.3-0.7 0.8-1 0.6-0.4 1.3-0.4 0.7 0 1.3 0.4 0.5 0.3 0.7 0.9 0.3 0.5 0.3 1.3v0.3zm0-0.6h2.8q0-0.4-0.2-0.8-0.1-0.3-0.4-0.5-0.3-0.2-0.8-0.2-0.5-0.1-0.8 0.2-0.3 0.2-0.5 0.6-0.1 0.3-0.1 0.7zm4.9 3v-5.1h0.9v0.7q0.1-0.2 0.3-0.4 0.2-0.2 0.6-0.3 0.3-0.1 0.7-0.1 0.5 0 0.9 0.2 0.4 0.2 0.7 0.6 0.2 0.4 0.2 1v3.4h-0.9v-3.3q0-0.6-0.3-0.9-0.4-0.3-0.9-0.3-0.3 0-0.6 0.2-0.3 0.1-0.5 0.3-0.2 0.2-0.2 0.6v3.4zm8.1-4.5h-1.2v3.2q0 0.3 0.1 0.4 0 0.2 0.2 0.2 0.1 0 0.3 0h0.6v0.7q-0.1 0-0.3 0-0.2 0-0.5 0-0.5 0-0.8-0.1-0.3-0.1-0.4-0.4-0.1-0.3-0.1-0.7v-3.3h-0.9v-0.6h0.9l0.2-1.6h0.7v1.5h1.2z"/><path fill-rule="evenodd" class="j" d="m159 130.2q-1.6-1.1-1.8-3.3h3q0.3 1 1 1.5 0.8 0.5 2 0.5 0.8 0 1.3-0.2 0.6-0.3 0.9-0.7 0.3-0.4 0.3-0.9 0-0.8-0.5-1.2-0.5-0.4-1.6-0.6l-2.3-0.5q-1.7-0.4-2.7-1.4-1-0.9-1-2.6 0-1.4 0.7-2.4 0.8-1 2.1-1.5 0.7-0.3 1.6-0.5v-1.9h2.5v2q0.9 0.1 1.6 0.4 1.2 0.6 1.8 1.6 0.7 1 0.7 2.2h-3q-0.1-0.9-0.6-1.5-0.5-0.5-1.7-0.5-0.6 0-1.1 0.1-0.4 0.1-0.8 0.4-0.3 0.2-0.5 0.5-0.2 0.3-0.2 0.7 0 0.7 0.5 1 0.4 0.4 1.6 0.7l2.3 0.6q2 0.5 2.8 1.6 0.9 1.1 0.9 2.8 0 1.2-0.7 2.2-0.7 0.9-1.9 1.4-0.8 0.3-1.7 0.4v1.8h-2.5v-1.8q-1.8-0.2-3-0.9zm16.8 1q-1.3 0-2.5-0.5-1.2-0.5-1.9-1.5-0.7-0.9-0.8-2.2h2.8q0.1 0.9 0.8 1.4 0.6 0.5 1.5 0.5 1.1 0 1.8-0.5 0.8-0.5 1.2-1.5 0.4-1.1 0.3-2.8-0.3 0.5-0.8 0.9-0.5 0.4-1.1 0.6-0.7 0.2-1.5 0.2-1.5 0-2.6-0.5-1.1-0.6-1.8-1.6-0.6-1.1-0.6-2.5 0-1.4 0.6-2.5 0.7-1.1 1.9-1.7 1.3-0.7 2.9-0.7 1.8 0 3.2 0.9 1.3 0.9 2 2.5 0.7 1.6 0.7 3.8 0 2.6-0.7 4.3-0.7 1.7-2.1 2.6-1.4 0.8-3.3 0.8zm0.3-7.7q0.6 0 1.2-0.3 0.6-0.3 0.9-0.7 0.4-0.4 0.4-0.8 0-1-0.3-1.7-0.3-0.7-0.9-1.1-0.6-0.4-1.3-0.3-0.7 0-1.2 0.3-0.6 0.3-0.9 0.9-0.3 0.6-0.3 1.3 0 1.1 0.7 1.8 0.6 0.6 1.7 0.6zm7.7 7.5v-2.2q0-1.1 0.4-1.9 0.4-0.8 1.1-1.4 0.7-0.6 1.5-1 0.8-0.5 1.6-0.9 0.8-0.4 1.5-0.8 0.7-0.4 1.1-0.9 0.4-0.5 0.4-1.2 0-0.8-0.6-1.4-0.6-0.5-1.7-0.5-1.1 0-1.8 0.6-0.8 0.6-1 1.9h-2.8q0.1-1.4 0.7-2.5 0.6-1.1 1.9-1.8 1.2-0.7 3.1-0.7 1.6 0 2.8 0.6 1.2 0.5 1.8 1.5 0.6 1 0.6 2.3 0 1.1-0.4 1.9-0.4 0.8-1 1.3-0.7 0.6-1.5 1-0.8 0.4-1.5 0.8-0.8 0.4-1.5 0.7-0.6 0.4-1 0.9-0.4 0.4-0.4 1.1v0.1h7.3v2.5zm17.9-14.7q2.6 0 4.1 2 1.5 1.9 1.5 5.5 0 3.6-1.5 5.5-1.5 1.9-4.1 1.9-2.6 0-4.1-1.9-1.5-1.9-1.5-5.5 0-2.4 0.7-4.1 0.7-1.6 1.9-2.5 1.3-0.9 3-0.9zm0 12.5q1.3 0 1.9-1.1 0.6-1.2 0.6-3.9 0-2.8-0.6-4-0.6-1.2-1.9-1.2-1.3 0-1.9 1.3-0.6 1.2-0.6 3.9 0 2.7 0.6 3.9 0.6 1.1 1.9 1.1zm13.6-12.3h2.9v8.9h2.2v2.4h-2.2v3.2h-2.8v-3.2h-6.6v-2.4zm-3.9 8.8h3.9v-5.3z"/></g><path fill-rule="evenodd" class="k" d="m176.3 54.4v-2.1h0.7v2.1zm-55.2 16v-14.1h2.7v1.4h0.1q0.5-0.9 1.3-1.3 0.8-0.4 1.8-0.4 1.2 0 2.1 0.5 0.9 0.5 1.5 1.2 0.6 0.8 0.9 1.8 0.3 1 0.3 2.2 0 1-0.3 2-0.3 1-0.9 1.7-0.6 0.7-1.4 1.2-0.9 0.4-2 0.4-1 0-1.8-0.4-0.8-0.4-1.4-1.1v4.9zm6.4-5.8q0.5-0.3 0.8-0.7 0.3-0.5 0.4-1.1 0.2-0.6 0.2-1.2 0-0.6-0.2-1.3-0.1-0.6-0.4-1-0.3-0.5-0.8-0.8-0.5-0.3-1.2-0.3-0.7 0-1.1 0.3-0.5 0.3-0.8 0.8-0.3 0.4-0.4 1-0.1 0.6-0.1 1.3 0 0.6 0.1 1.2 0.1 0.6 0.4 1.1 0.3 0.4 0.8 0.7 0.5 0.3 1.2 0.3 0.7 0 1.1-0.3zm10.8 2.2q-0.9 0.2-1.9 0.2-0.8 0-1.4-0.1-0.6-0.2-1.1-0.6-0.5-0.4-0.8-1-0.3-0.6-0.3-1.4 0-0.9 0.4-1.4 0.3-0.6 0.8-1 0.5-0.3 1.1-0.5 0.6-0.1 1.3-0.2 0.6-0.1 1.2-0.2 0.7-0.1 1.2-0.2 0.4-0.1 0.7-0.3 0.3-0.3 0.3-0.7 0-0.5-0.2-0.8-0.1-0.2-0.4-0.4-0.2-0.1-0.6-0.2-0.3 0-0.7 0-0.8 0-1.3 0.3-0.5 0.4-0.6 1.2h-2.8q0-1 0.5-1.6 0.4-0.7 1.1-1.1 0.7-0.4 1.5-0.6 0.9-0.2 1.8-0.2 0.8 0 1.6 0.2 0.8 0.1 1.4 0.4 0.7 0.3 1.1 0.9 0.5 0.6 0.5 1.5v5.5q0 0.7 0 1.3 0.1 0.7 0.3 1h-2.9q-0.1-0.3-0.1-0.5-0.1-0.3-0.1-0.5-0.7 0.7-1.6 1zm0.5-1.9q0.4-0.3 0.7-0.7 0.2-0.4 0.2-0.8 0.1-0.4 0.1-0.7v-1q-0.2 0.1-0.5 0.2-0.2 0.1-0.5 0.2-0.4 0-0.7 0.1-0.3 0-0.7 0.1-0.3 0-0.6 0.1-0.3 0.1-0.6 0.3-0.2 0.2-0.3 0.4-0.2 0.3-0.2 0.7 0 0.4 0.2 0.7 0.1 0.2 0.3 0.4 0.3 0.1 0.6 0.2 0.3 0 0.7 0 0.8 0 1.3-0.2zm9.8 5q-0.8 0.5-2.3 0.5-0.5 0-0.9 0-0.4 0-0.9-0.1v-2.3q0.4 0 0.9 0 0.4 0.1 0.8 0.1 0.6-0.1 0.8-0.5 0.3-0.4 0.3-0.8 0-0.4-0.1-0.7l-3.7-9.8h3.1l2.4 7.2 2.3-7.2h2.9l-4.3 11.8q-0.5 1.2-1.3 1.8zm6.9-3.6q-0.9-0.7-0.9-2.2 0-0.9 0.4-1.5 0.3-0.6 0.9-0.9 0.6-0.3 1.2-0.5 0.7-0.1 1.3-0.2l1.2-0.1q0.9 0 1.3-0.2 0.5-0.1 0.8-0.3 0.2-0.3 0.3-0.6 0-0.4 0-0.9 0-0.5-0.1-0.8-0.2-0.4-0.6-0.7-0.3-0.3-0.8-0.4-0.6-0.2-1.4-0.2-1.4 0-2.2 0.7-0.9 0.7-1 2.1h-0.7q0-1.7 1.1-2.6 1-0.9 2.9-0.9 1.8 0 2.7 0.8 0.9 0.7 0.9 1.9v6.1q0 0.2 0 0.4 0 0.2 0 0.4 0.1 0.2 0.2 0.3 0.2 0.1 0.4 0.1 0.3 0 0.6-0.1v0.7q-0.3 0.1-0.6 0.1-0.5 0-0.7-0.1-0.3-0.2-0.5-0.4-0.1-0.2-0.2-0.4 0-0.3 0-0.6v-0.6q-0.2 0.5-0.6 0.9-0.3 0.4-0.8 0.7-0.5 0.4-1.1 0.5-0.7 0.2-1.4 0.2-1.7 0-2.6-0.7zm0.6-0.5q0.7 0.5 2 0.5 1.3 0 2.1-0.4 0.8-0.5 1.2-1.1 0.4-0.6 0.5-1.2 0.1-0.6 0.1-0.8v-1.9q-0.3 0.3-0.9 0.4-0.5 0.2-1.2 0.2l-1.3 0.1q-0.6 0.1-1.2 0.2-0.5 0.1-1 0.4-0.4 0.2-0.7 0.7-0.3 0.5-0.3 1.2 0 1.1 0.7 1.7zm9.1 4.7v-14.1h0.8v2.4q0.2-0.4 0.4-0.9 0.3-0.4 0.8-0.8 0.5-0.4 1.1-0.7 0.7-0.3 1.5-0.3 1.2 0 2.1 0.5 0.9 0.4 1.5 1.2 0.5 0.7 0.8 1.7 0.3 1 0.3 2.1 0 1.2-0.3 2.2-0.3 1-0.8 1.7-0.6 0.7-1.5 1.1-0.9 0.4-2.1 0.4-1.3 0-2.3-0.5-1-0.6-1.5-1.9v5.9zm2.8-4.5q0.7 0.3 1.8 0.3 1 0 1.7-0.3 0.8-0.4 1.3-1.1 0.4-0.6 0.7-1.5 0.2-0.8 0.2-1.8 0-0.9-0.2-1.7-0.3-0.9-0.7-1.6-0.5-0.7-1.2-1.1-0.8-0.4-1.8-0.4-1 0-1.8 0.4-0.7 0.4-1.2 1.1-0.4 0.7-0.6 1.5-0.2 0.9-0.2 1.8 0 0.9 0.2 1.8 0.2 0.8 0.6 1.5 0.4 0.7 1.2 1.1zm8.3-9.6h0.8v10.4h-0.8z"/><path class="k" d="m102.8 53.5c-0.8-0.7-0.8-1.9 0-2.7 0.7-0.7 1.9-0.7 2.6 0 0.8 0.8 0.8 2 0 2.7-0.7 0.7-1.9 0.7-2.6 0z"/><path class="k" d="m107.2 58c-0.7-0.8-0.7-2 0-2.7 0.8-0.8 2-0.8 2.7 0 0.7 0.7 0.7 1.9 0 2.7-0.7 0.7-1.9 0.7-2.7 0z"/><path class="k" d="m111.7 62.4c-0.8-0.7-0.8-1.9 0-2.6 0.7-0.8 1.9-0.8 2.7 0 0.7 0.7 0.7 1.9 0 2.6-0.8 0.8-2 0.8-2.7 0z"/><path class="k" d="m98.3 58c-0.8-0.8-0.8-2 0-2.7 0.7-0.8 1.9-0.8 2.7 0 0.7 0.7 0.7 1.9 0 2.7-0.8 0.7-2 0.7-2.7 0z"/><path class="l" d="m102.8 62.4c-0.8-0.7-0.8-1.9 0-2.6 0.7-0.8 1.9-0.8 2.6 0 0.8 0.7 0.8 1.9 0 2.6-0.7 0.8-1.9 0.8-2.6 0z"/><path class="l" d="m107.2 66.9c-0.7-0.7-0.7-1.9 0-2.7 0.8-0.7 2-0.7 2.7 0 0.7 0.8 0.7 2 0 2.7-0.7 0.7-1.9 0.7-2.7 0z"/><path class="k" d="m93.8 62.4c-0.7-0.7-0.7-1.9 0-2.6 0.8-0.8 2-0.8 2.7 0 0.7 0.7 0.7 1.9 0 2.6-0.7 0.8-1.9 0.8-2.7 0z"/><path class="l" d="m98.3 66.9c-0.8-0.7-0.8-1.9 0-2.7 0.7-0.7 1.9-0.7 2.7 0 0.7 0.8 0.7 2 0 2.7-0.8 0.7-2 0.7-2.7 0z"/><path class="m" d="m102.8 71.4c-0.8-0.8-0.8-2 0-2.7 0.7-0.8 1.9-0.8 2.6 0 0.8 0.7 0.8 1.9 0 2.7-0.7 0.7-1.9 0.7-2.6 0z"/></svg>