<svg version="1.2" xmlns="http://www.w3.org/2000/svg" viewBox="0 0 544 1016" width="544" height="1016"><defs><linearGradient id="P" gradientUnits="userSpaceOnUse"/><linearGradient id="g1" x2="1" href="#P" gradientTransform="matrix(0,24.648,-485.284,0,30.029,8)"><stop stop-color="#454545"/><stop offset=".23" stop-color="#999"/><stop offset="1" stop-color="#fff"/></linearGradient><linearGradient id="g2" x2="1" href="#P" gradientTransform="matrix(-18.922,0,0,-652.312,530.207,179.495)"><stop stop-color="#fff" stop-opacity=".01"/><stop offset=".22" stop-color="#bababa" stop-opacity="1"/><stop offset=".55" stop-color="#fff" stop-opacity=".01"/><stop offset="1" stop-color="#fff" stop-opacity=".01"/></linearGradient><linearGradient id="g3" x2="1" href="#P" gradientTransform="matrix(18.952,0,0,653.356,15.136,178.974)"><stop stop-color="#fff" stop-opacity=".01"/><stop offset=".22" stop-color="#bababa" stop-opacity="1"/><stop offset=".55" stop-color="#fff" stop-opacity=".01"/><stop offset="1" stop-color="#fff" stop-opacity=".01"/></linearGradient><clipPath clipPathUnits="userSpaceOnUse" id="cp1"><path d="m40.15 32.89h466v930h-466z"/></clipPath><clipPath clipPathUnits="userSpaceOnUse" id="cp2"><path d="m227.35 32.89h-148.81c-22.21 0-38.39 15.13-38.39 34.88v844.78c0 25.76 25 48.58 53.28 48.58h358.66c27.24 0 53.28-23 53.28-48.58v-842.49c0-23.68-17.58-37.03-38.39-37.17h-151.17c-0.58 0.09-10.96 4.36-15.35 15.13-4.39 10.76-13.22 19.34-22.89 19.34h-11.23c-4.59 0-16.69-4.46-22.82-19.34-6.13-14.89-15.6-15.04-16.17-15.13z"/></clipPath><linearGradient id="g4" x2="1" href="#P" gradientTransform="matrix(0,922.761,-462.373,0,41.814,32.889)"><stop stop-color="#9cb6cd"/><stop offset=".42" stop-color="#9ab3ca"/><stop offset=".72" stop-color="#557496"/><stop offset="1" stop-color="#475178"/></linearGradient><clipPath clipPathUnits="userSpaceOnUse" id="cp3"><path d="m54 342h436v174h-436z"/></clipPath><clipPath clipPathUnits="userSpaceOnUse" id="cp4"><path d="m86 374h374v22h-374z"/></clipPath></defs><style>.a{fill:#213648}.b{opacity:.4;fill:url(#g1)}.c{opacity:.7;fill:url(#g2)}.d{opacity:.7;fill:url(#g3)}.e{fill:#2e423c}.f{fill:#fff}.g{fill:url(#g4)}.h{fill:#fbfcfe}.i{fill:#ba4270}.j{opacity:.5;fill:#36536b}.k{fill:#36536b}</style><path fill-rule="evenodd" class="a" d="m81.6 9.1h382.4c36.7 0 66.4 28.5 66.4 63.6v870.6c0 35.1-29.7 63.6-66.4 63.6h-382.4c-36.7 0-66.5-28.5-66.5-63.6v-870.6c0-35.1 29.8-63.6 66.5-63.6z"/><path fill-rule="evenodd" class="b" d="m465.5 8h-385.7q-27 1.6-49.8 24.6c9.8-8.5 27.3-19.9 50.3-19.9 0 0 369.4 0 384.7 0 23.1 0 40.5 11.4 50.3 19.9q-22.8-23-49.8-24.6z"/><path fill-rule="evenodd" class="c" d="m520 933.3v-855.3c0-23-8.4-31.5-13.5-36.9-5-5.5-5.2-8.2 2-4.1 7.2 4.1 21.7 16.1 21.7 41v855.3c0 24.9-14.5 36.9-21.7 41-7.2 4.2-7 1.4-2-4.1 5.1-5.4 13.5-13.9 13.5-36.9z"/><path fill-rule="evenodd" class="d" d="m25.3 933.3v-855.3c0-23 8.5-31.5 13.5-36.9 5-5.5 5.3-8.2-2-4.1-7.2 4.1-21.7 16.1-21.7 41v855.3c0 24.9 14.5 36.9 21.7 41 7.3 4.2 7 1.4 2-4.1-5-5.4-13.5-13.9-13.5-36.9z"/><path fill-rule="evenodd" class="e" d="m10 215.1c0-2.2 1.8-4 4-4h1.9c2.2 0 4 1.8 4 4v120.7c0 2.2-1.8 4-4 4h-1.9c-2.2 0-4-1.8-4-4z"/><path fill-rule="evenodd" class="e" d="m525.1 320.1c0-2.2 1.8-4 4-4h1.9c2.2 0 4 1.8 4 4v85.9c0 2.2-1.8 4-4 4h-1.9c-2.2 0-4-1.8-4-4z"/><g clip-path="url(#cp1)"><path fill-rule="evenodd" class="f" d="m227.4 32.9h-148.9c-22.2 0-38.4 15.1-38.4 34.9v844.8c0 25.7 25.1 48.5 53.3 48.5h358.7c27.2 0 53.3-23 53.3-48.5v-842.5c0-23.7-17.6-37.1-38.4-37.2h-151.2c-0.6 0.1-10.9 4.4-15.3 15.1-4.4 10.8-13.3 19.4-22.9 19.4h-11.3c-4.6 0-16.7-4.5-22.8-19.4-6.1-14.9-15.6-15-16.1-15.1z"/><g clip-path="url(#cp2)"><path class="g" d="m40 32.9h466v930h-466z"/><path fill-rule="evenodd" class="f" d="m199 290v-34.7h-8.2v-5.2q3.9 0 6.4-0.8 2.4-0.7 3.6-2.1 1.2-1.5 1.5-3.5h6.2v46.3zm20 0v-7q0-3.5 1.3-6.1 1.3-2.5 3.4-4.4 2.2-2 4.8-3.4 2.6-1.4 5.2-2.7 2.5-1.3 4.7-2.6 2.2-1.3 3.5-2.9 1.3-1.6 1.3-3.8 0-2.7-2-4.5-1.9-1.8-5.2-1.8-3.5 0-6 2-2.4 2.1-3 6.1h-8.9q0.1-4.4 2-8 2.1-3.6 6.1-5.7 4-2.1 10-2.1 5.2 0 8.9 1.7 3.8 1.8 5.9 4.9 2 3.2 2 7.4 0 3.5-1.3 6-1.2 2.5-3.4 4.3-2.1 1.8-4.6 3.1-2.5 1.4-5.1 2.5-2.5 1.2-4.6 2.4-2.1 1.2-3.4 2.7-1.2 1.5-1.2 3.6v0.4h23.5v7.9zm50.5-32.3v10h-10.3v-10zm0 22.1v10h-10.2v-10zm27.5-36.1h9.2v28.2h7.1v7.9h-7.1v10.2h-9v-10.2h-21.3v-7.7zm-12.5 28.2h12.7v-17zm50.4 18.8q-4.3 0-8-1.7-3.8-1.6-6.1-4.6-2.4-3.1-2.7-7.1h8.9q0.6 2.6 2.6 4.3 1.9 1.7 4.9 1.7 3.4 0 5.9-1.6 2.5-1.5 3.7-5 1.3-3.4 0.9-8.9-0.9 1.7-2.5 3-1.5 1.2-3.6 1.9-2.1 0.7-4.7 0.7-4.7 0-8.4-1.8-3.6-1.8-5.7-5-2-3.3-2-7.8 0-4.6 2.1-8.1 2.2-3.6 6.1-5.6 3.9-2 9.2-2 5.9 0 10.1 2.8 4.3 2.8 6.6 7.9 2.3 5.2 2.3 12.1 0 8.3-2.4 13.8-2.3 5.5-6.7 8.3-4.4 2.7-10.5 2.7zm0.9-24.7q1.9 0 3.7-0.9 1.9-0.9 3.1-2.2 1.2-1.4 1.2-2.8 0-3.1-1-5.3-1-2.3-2.8-3.5-1.8-1.1-4.2-1.1-2.2 0-4 1-1.7 1-2.7 2.9-1 1.8-1 4.2 0 3.7 2.1 5.7 2.1 2 5.6 2z"/></g></g><g clip-path="url(#cp3)"><path class="h" d="m54 347c0-2.8 2.2-5 5-5h426c2.8 0 5 2.2 5 5v164c0 2.8-2.2 5-5 5h-426c-2.8 0-5-2.2-5-5z"/><g clip-path="url(#cp4)"><path fill-rule="evenodd" class="i" d="m87.6 394v-14.5h5.3q1.6 0 2.9 0.6 1.2 0.5 1.9 1.6 0.8 1.1 0.8 2.6 0 1.4-0.7 2.4-0.6 1.1-1.8 1.6-1.1 0.5-2.7 0.5h-2.7v5.2zm2.9-7.4h2.7q1.1 0 1.8-0.7 0.7-0.7 0.7-1.8 0-1.1-0.8-1.7-0.7-0.6-1.8-0.6h-2.6zm12.5 7.6q-1 0-1.8-0.4-0.8-0.3-1.3-1-0.4-0.7-0.4-1.8 0-1.7 1.2-2.5 1.3-0.9 4.1-1h1.2v-0.6q0-0.7-0.4-1.1-0.4-0.4-1.3-0.4-0.6 0-1.2 0.3-0.5 0.3-0.8 1h-2.4q0.1-1.1 0.7-1.8 0.6-0.7 1.6-1.1 1-0.3 2.3-0.3 1.6 0 2.5 0.4 1 0.4 1.4 1.1 0.4 0.7 0.4 1.7v7.3h-2.4l-0.2-1.8q-0.6 1.1-1.4 1.6-0.8 0.4-1.8 0.4zm0.9-1.9q0.4 0 0.8-0.2 0.4-0.1 0.7-0.4 0.3-0.2 0.5-0.5 0.1-0.3 0.1-0.6v-1.6h-1q-0.7 0.1-1.4 0.2-0.6 0.2-1 0.5-0.4 0.4-0.4 1 0 0.8 0.5 1.2 0.5 0.4 1.2 0.4zm8.8 5q-1.1 0-1.5-0.2-0.5-0.1-0.5-0.2v-1.8h1.1q0.6 0.1 1 0 0.4-0.1 0.7-0.3 0.2-0.2 0.3-0.4 0.1-0.2 0.1-0.3l0.2-0.5-4-9.9h2.9l2.4 6.7 2.5-6.7h2.9l-4.2 10.4q-0.5 1.3-1.1 2-0.6 0.7-1.3 0.9-0.7 0.3-1.5 0.3zm7.7-3.3l5.2-14.5h3.1l5.1 14.5h-2.9l-1.2-3.4h-5.2l-1.2 3.4zm4.8-5.9h3.9l-1.9-5.7zm10.8 5.9v-14.5h5.3q1.6 0 2.8 0.5 1.3 0.6 2 1.6 0.7 1.1 0.7 2.6 0 1.5-0.6 2.5-0.7 1-1.8 1.6-1.2 0.5-2.7 0.5h-2.8v5.2zm2.9-7.5h2.7q1.1 0 1.8-0.7 0.7-0.7 0.7-1.7 0-1.1-0.7-1.7-0.8-0.7-1.8-0.7h-2.7zm10.2-7h2.9v14.5h-2.9z"/><path fill-rule="evenodd" class="j" d="m381.2 390.6q0 1.1-0.2 1.9-0.3 0.9-1 1.3-0.6 0.4-1.9 0.4-0.7 0-1.4-0.2-0.7-0.2-0.9-0.3l0.1-1.7q0.3 0.1 0.7 0.3 0.5 0.1 1.1 0.1 0.9 0 1.3-0.5 0.4-0.6 0.4-1.8v-10.6h1.8zm6.9 3.7q-0.8-0.1-1.5-0.3-0.8-0.2-1.3-0.6-0.6-0.5-0.9-1.1-0.3-0.7-0.3-1.6v-7h1.9v6.8q0 1 0.6 1.7 0.6 0.6 1.9 0.6 1.1 0 1.8-0.6 0.7-0.6 0.7-1.8v-6.7h1.8v10.4h-1.4l-0.2-2q-0.2 0.8-0.7 1.2-0.4 0.5-1.1 0.7-0.6 0.3-1.3 0.3zm11.3 0q-1.1-0.1-2-0.4-0.9-0.3-1.5-1-0.7-0.7-0.8-1.9h1.7q0.1 0.7 0.5 1.1 0.3 0.4 0.9 0.6 0.5 0.2 1.2 0.2 1 0 1.7-0.4 0.6-0.4 0.6-1.2 0-0.6-0.3-0.9-0.4-0.4-1.1-0.5l-2.1-0.6q-1.3-0.3-2-0.9-0.8-0.6-0.8-1.8 0-0.9 0.5-1.6 0.4-0.7 1.3-1.1 0.9-0.4 2.2-0.4 1.7 0 2.7 0.8 1 0.7 1.1 2.2h-1.7q-0.1-0.8-0.6-1.2-0.6-0.4-1.5-0.4-1 0-1.6 0.4-0.7 0.4-0.7 1.2 0 0.5 0.5 0.9 0.4 0.3 1.3 0.5l2 0.5q0.8 0.2 1.2 0.5 0.5 0.3 0.8 0.7 0.2 0.4 0.4 0.8 0.1 0.4 0.1 0.8 0 0.9-0.5 1.6-0.5 0.7-1.4 1.1-0.8 0.4-2.1 0.4zm11.6-9.2h-2.3v6.4q0 0.5 0.1 0.8 0.1 0.3 0.4 0.3 0.2 0.1 0.7 0.1h1.2v1.2q-0.2 0.1-0.6 0.2-0.4 0-1 0-1 0-1.6-0.3-0.6-0.3-0.9-0.9-0.2-0.5-0.2-1.3v-6.5h-1.7v-1.4h1.8l0.4-3h1.4v3h2.3zm17.1-5.5h1.8v14.5h-1.6l-7.8-11.4v11.4h-1.9v-14.5h1.8l7.7 11.3zm9.2 14.6q-1.4 0-2.5-0.6-1.1-0.6-1.6-1.8-0.6-1.2-0.6-2.9 0-1.6 0.5-2.8 0.6-1.3 1.6-1.9 1.1-0.7 2.6-0.7 1.4 0 2.5 0.6 1.1 0.6 1.6 1.8 0.6 1.3 0.6 3 0 1.6-0.5 2.8-0.6 1.2-1.6 1.9-1 0.6-2.6 0.6zm0-1.4q0.9 0 1.6-0.5 0.6-0.5 1-1.4 0.3-0.8 0.3-2 0-1.1-0.3-2-0.3-0.9-0.9-1.4-0.7-0.6-1.7-0.6-0.9 0-1.6 0.5-0.6 0.5-1 1.3-0.3 0.9-0.3 2.2 0 1.1 0.3 1.9 0.3 0.9 0.9 1.4 0.7 0.6 1.7 0.6zm20.4-9.1l-3.2 10.3h-1.8l-2.3-7.6-2.3 7.6h-1.8l-3.2-10.3h1.7l2.4 7.9h0.2l2.3-7.9h1.4l2.4 7.9h0.2l2.2-7.9z"/></g><path fill-rule="evenodd" class="k" d="m86.5 413.2v-1.7h10.9v1.7h-4.4v12.8h-1.9v-12.8zm13 12.8v-14.9h1.8v6.1q0.2-0.4 0.7-0.8 0.4-0.4 1-0.6 0.7-0.3 1.5-0.3 1 0 1.8 0.4 0.9 0.4 1.3 1.1 0.5 0.7 0.5 1.6v7.4h-1.8v-7q0-1-0.7-1.5-0.6-0.5-1.6-0.5-0.7 0-1.3 0.3-0.6 0.2-1 0.7-0.4 0.4-0.4 1.1v6.9zm12.9-4.7q0 0.9 0.3 1.7 0.3 0.8 1 1.3 0.6 0.5 1.6 0.5 1 0 1.7-0.5 0.8-0.5 1-1.3h1.7q-0.2 1-0.8 1.8-0.7 0.7-1.6 1-0.9 0.4-1.9 0.4-1.5 0-2.6-0.6-1.1-0.7-1.7-1.8-0.6-1.2-0.6-2.9 0-1.6 0.5-2.8 0.6-1.3 1.7-2 1-0.6 2.5-0.6 1.5 0 2.5 0.6 1 0.6 1.5 1.8 0.6 1.1 0.6 2.7v0.7zm0-1.3h5.6q0-0.9-0.3-1.6-0.3-0.7-0.9-1.1-0.6-0.4-1.6-0.4-0.9 0-1.6 0.4-0.6 0.5-0.9 1.2-0.3 0.7-0.3 1.5zm14.4 9.2v-13.5h1.8l0.1 1.8q0.1-0.4 0.4-0.7 0.3-0.4 0.7-0.7 0.4-0.3 1-0.5 0.5-0.1 1.3-0.1 1.2 0 2.1 0.5 1 0.6 1.5 1.8 0.5 1.1 0.5 2.9 0 1.8-0.5 3-0.5 1.2-1.5 1.9-0.9 0.6-2.3 0.6-0.7 0-1.2-0.2-0.6-0.2-1-0.5-0.3-0.3-0.6-0.7-0.3-0.3-0.4-0.7v5.1zm4.7-4.4q1.3 0 2.1-1 0.8-1 0.8-3 0-1.8-0.7-2.9-0.8-1-2.2-1-1.4 0-2.2 1.1-0.7 1-0.7 2.8 0 1.1 0.3 2 0.4 0.9 1 1.4 0.7 0.6 1.6 0.6zm9.8 1.4q-1 0-1.7-0.3-0.8-0.4-1.2-1.1-0.5-0.7-0.5-1.6 0-1.7 1.2-2.6 1.2-0.8 3.9-0.9h1.8v-0.8q0-1-0.5-1.5-0.6-0.6-1.8-0.6-0.9 0-1.6 0.4-0.6 0.4-0.8 1.4h-1.7q0.1-1 0.6-1.7 0.5-0.7 1.4-1.1 0.9-0.3 2.2-0.3 1.3 0 2.2 0.3 0.9 0.4 1.4 1.2 0.4 0.7 0.4 1.8v7.2h-1.6l-0.1-1.9q-0.6 1.2-1.5 1.6-0.9 0.5-2.1 0.5zm0.6-1.3q0.5 0 1-0.2 0.6-0.2 1-0.5 0.4-0.4 0.7-0.8 0.2-0.4 0.2-0.8v-1.8l-1.5 0.1q-1.2 0-2 0.2-0.8 0.2-1.2 0.7-0.4 0.5-0.4 1.2 0 0.9 0.6 1.4 0.6 0.5 1.6 0.5zm8.6 4.4q-0.9 0-1.3-0.1-0.3-0.2-0.3-0.2v-1.2l1 0.1q0.6 0 1-0.1 0.4-0.1 0.6-0.3 0.2-0.2 0.3-0.4 0.2-0.2 0.3-0.4l0.3-0.9-4-10.1h1.8l3.1 7.9 3-7.9h1.8l-4.3 11.1q-0.4 1-0.9 1.5-0.5 0.6-1.1 0.8-0.6 0.2-1.3 0.2zm9.6-3.3v-10.3h1.8v1.5q0.4-0.7 1.2-1.2 0.7-0.5 1.9-0.5 0.6 0 1.2 0.1 0.5 0.2 1 0.6 0.5 0.4 0.8 0.9 0.5-0.7 1.3-1.2 0.8-0.4 1.8-0.4 0.6 0 1.2 0.1 0.6 0.2 1.1 0.6 0.5 0.4 0.8 1.2 0.3 0.7 0.3 1.8v6.8h-1.8v-6.6q0-0.9-0.3-1.4-0.3-0.6-0.8-0.8-0.5-0.2-1.1-0.2-0.4 0-1 0.2-0.5 0.2-0.9 0.7-0.4 0.4-0.4 1.2v6.9h-1.8v-7.1q0-0.6-0.3-1-0.4-0.4-0.9-0.7-0.4-0.2-0.9-0.2-0.5 0-1.1 0.2-0.5 0.2-0.9 0.7-0.3 0.5-0.3 1.2v6.9zm18.6-4.7q0 0.9 0.3 1.7 0.3 0.8 1 1.3 0.7 0.5 1.7 0.5 0.9 0 1.7-0.5 0.7-0.5 0.9-1.3h1.7q-0.2 1-0.8 1.8-0.7 0.7-1.6 1-0.9 0.4-1.9 0.4-1.5 0-2.6-0.6-1.1-0.7-1.7-1.8-0.6-1.2-0.6-2.9 0-1.6 0.6-2.8 0.5-1.3 1.6-2 1.1-0.6 2.6-0.6 1.4 0 2.4 0.6 1 0.6 1.6 1.8 0.5 1.1 0.5 2.7v0.7zm0-1.3h5.6q0-0.9-0.3-1.6-0.3-0.7-0.9-1.1-0.6-0.4-1.5-0.4-1 0-1.7 0.4-0.6 0.5-0.9 1.2-0.3 0.7-0.3 1.5zm9.9 6v-10.3h1.8v1.5q0.3-0.5 0.7-0.8 0.5-0.4 1.1-0.7 0.6-0.2 1.5-0.2 0.9 0 1.8 0.4 0.8 0.4 1.3 1.2 0.5 0.8 0.5 2.1v6.8h-1.9v-6.6q0-1.2-0.6-1.8-0.6-0.6-1.6-0.6-0.7 0-1.4 0.3-0.6 0.2-0.9 0.7-0.4 0.4-0.4 1.1v6.9zm16.3-9h-2.3v6.4q0 0.6 0.1 0.9 0.1 0.2 0.4 0.3 0.2 0 0.7 0h1.1v1.3q-0.1 0.1-0.5 0.1-0.4 0-1 0-1.1 0-1.6-0.2-0.6-0.3-0.9-0.9-0.2-0.6-0.2-1.4v-6.5h-1.7v-1.3h1.7l0.5-3.1h1.4v3h2.3zm7.2 9v-14.8h1.8v6q0.3-0.4 0.7-0.8 0.5-0.4 1.1-0.6 0.6-0.2 1.5-0.2 1 0 1.8 0.3 0.8 0.4 1.3 1.1 0.5 0.7 0.5 1.7v7.3h-1.9v-7q0-0.9-0.6-1.4-0.6-0.5-1.7-0.5-0.6 0-1.3 0.2-0.6 0.2-0.9 0.7-0.4 0.4-0.4 1.1v6.9zm14.3 0.2q-1 0-1.7-0.3-0.8-0.4-1.2-1-0.5-0.7-0.5-1.7 0-1.7 1.2-2.5 1.2-0.9 3.9-0.9l1.8-0.1v-0.8q0-0.9-0.5-1.5-0.6-0.5-1.8-0.5-0.9 0-1.6 0.4-0.7 0.4-0.9 1.3h-1.6q0.1-1 0.6-1.7 0.5-0.7 1.4-1 0.9-0.4 2.2-0.4 1.3 0 2.2 0.4 0.9 0.4 1.4 1.1 0.4 0.7 0.4 1.8v7.2h-1.6l-0.1-1.9q-0.6 1.2-1.5 1.7-1 0.4-2.1 0.4zm0.6-1.3q0.5 0 1-0.2 0.5-0.2 1-0.5 0.4-0.3 0.7-0.7 0.2-0.4 0.2-0.9v-1.7h-1.5q-1.2 0-2 0.2-0.8 0.3-1.2 0.7-0.4 0.5-0.4 1.3 0 0.8 0.6 1.3 0.6 0.5 1.6 0.5zm11.4 1.3q-1.1 0-2.1-0.3-0.9-0.3-1.5-1-0.6-0.8-0.8-1.9h1.7q0.2 0.6 0.5 1 0.4 0.5 0.9 0.7 0.6 0.2 1.2 0.2 1.1 0 1.7-0.4 0.7-0.4 0.7-1.2 0-0.6-0.4-0.9-0.3-0.4-1-0.6l-2.1-0.5q-1.3-0.3-2-0.9-0.8-0.7-0.8-1.8 0-0.9 0.4-1.6 0.5-0.7 1.4-1.1 0.8-0.4 2.1-0.4 1.7 0 2.8 0.8 1 0.7 1 2.2h-1.6q-0.1-0.8-0.7-1.2-0.5-0.4-1.5-0.4-1 0-1.6 0.4-0.6 0.4-0.6 1.2 0 0.5 0.4 0.8 0.5 0.4 1.3 0.6l2.1 0.5q0.7 0.2 1.2 0.5 0.5 0.3 0.7 0.7 0.3 0.4 0.4 0.8 0.1 0.4 0.1 0.8 0 0.9-0.4 1.6-0.5 0.7-1.4 1.1-0.9 0.3-2.1 0.3zm16.2 0q-0.9 0-1.6-0.2-0.6-0.2-1-0.6-0.4-0.4-0.6-0.8-0.2-0.4-0.3-0.7l-0.2 2.1h-1.4v-14.8h1.8v6.1q0.1-0.2 0.4-0.5 0.3-0.3 0.7-0.6 0.4-0.3 1-0.5 0.6-0.2 1.3-0.2 1.9 0 3.1 1.3 1.1 1.4 1.1 4 0 1.7-0.5 2.9-0.4 1.2-1.4 1.9-1 0.6-2.4 0.6zm-0.4-1.4q1.3 0 2.1-1 0.8-0.9 0.8-3.1 0-1.8-0.8-2.8-0.7-1-2.1-1-1 0-1.7 0.5-0.6 0.4-0.9 1.3-0.3 0.8-0.3 2 0 2.2 0.7 3.2 0.7 0.9 2.2 0.9zm8.5-3.5q0 1 0.3 1.8 0.3 0.8 1 1.2 0.6 0.5 1.6 0.5 1 0 1.7-0.5 0.8-0.4 1-1.3h1.7q-0.2 1.1-0.8 1.8-0.7 0.7-1.6 1.1-0.9 0.3-1.9 0.3-1.5 0-2.6-0.6-1.1-0.6-1.7-1.8-0.6-1.2-0.6-2.8 0-1.7 0.6-2.9 0.5-1.2 1.6-1.9 1-0.7 2.5-0.7 1.5 0 2.5 0.6 1 0.7 1.5 1.8 0.6 1.1 0.6 2.7v0.7zm0-1.3h5.6q0-0.8-0.3-1.6-0.3-0.7-0.9-1.1-0.6-0.4-1.6-0.4-0.9 0-1.6 0.5-0.6 0.4-0.9 1.2-0.3 0.7-0.3 1.4zm11.2 1.3q0 1 0.4 1.8 0.3 0.8 1 1.2 0.6 0.5 1.6 0.5 1 0 1.7-0.5 0.7-0.4 0.9-1.3h1.8q-0.2 1.1-0.8 1.8-0.7 0.7-1.6 1.1-0.9 0.3-1.9 0.3-1.5 0-2.6-0.6-1.1-0.6-1.7-1.8-0.6-1.2-0.6-2.8 0-1.7 0.5-2.9 0.6-1.2 1.7-1.9 1-0.7 2.5-0.7 1.5 0 2.5 0.6 1 0.7 1.5 1.8 0.6 1.1 0.6 2.7v0.7zm0-1.3h5.6q0-0.8-0.3-1.6-0.3-0.7-0.9-1.1-0.6-0.4-1.6-0.4-0.9 0-1.6 0.5-0.6 0.4-0.9 1.2-0.3 0.7-0.3 1.4zm9.9 6v-10.3h1.8v1.5q0.2-0.4 0.7-0.8 0.4-0.4 1.1-0.6 0.6-0.2 1.4-0.3 1 0 1.8 0.4 0.9 0.4 1.4 1.3 0.5 0.8 0.5 2.1v6.7h-1.9v-6.5q0-1.2-0.6-1.8-0.7-0.6-1.7-0.6-0.7 0-1.3 0.2-0.6 0.2-1 0.7-0.4 0.4-0.4 1.1v6.9zm16.2 3.3v-13.6h1.8l0.1 1.8q0.1-0.3 0.4-0.7 0.3-0.3 0.7-0.6 0.4-0.3 1-0.5 0.5-0.2 1.3-0.2 1.2 0 2.1 0.6 1 0.5 1.5 1.7 0.5 1.1 0.5 2.9 0 1.8-0.5 3-0.5 1.3-1.5 1.9-0.9 0.6-2.3 0.6-0.7 0-1.2-0.2-0.6-0.1-1-0.5-0.3-0.3-0.6-0.6-0.3-0.4-0.4-0.7v5.1zm4.7-4.5q1.3 0 2.1-1 0.8-1 0.8-3 0-1.8-0.7-2.8-0.8-1.1-2.2-1.1-1.4 0-2.2 1.1-0.7 1.1-0.7 2.8 0 1.1 0.3 2 0.4 0.9 1 1.5 0.7 0.5 1.6 0.5zm7.1 1.2v-10.3h1.8v2q0.3-0.7 0.7-1.2 0.5-0.5 1.1-0.8 0.6-0.2 1.3-0.2 0.2 0 0.4 0 0.2 0.1 0.3 0.1v1.8q-0.1-0.1-0.3-0.1-0.3 0-0.4 0-0.7 0-1.2 0.1-0.5 0.1-0.9 0.4-0.5 0.3-0.7 0.7-0.2 0.5-0.2 1.1v6.4zm11.6 0.2q-1.4 0-2.5-0.6-1.1-0.6-1.7-1.8-0.5-1.2-0.5-2.9 0-1.6 0.5-2.8 0.6-1.2 1.6-1.9 1.1-0.7 2.6-0.7 1.4 0 2.5 0.6 1 0.6 1.6 1.9 0.6 1.2 0.6 2.9 0 1.6-0.5 2.8-0.6 1.2-1.6 1.9-1.1 0.6-2.6 0.6zm0-1.4q0.9 0 1.6-0.5 0.6-0.5 0.9-1.3 0.4-0.9 0.4-2.1 0-1.1-0.3-2-0.3-0.9-0.9-1.4-0.7-0.6-1.7-0.6-0.9 0.1-1.6 0.5-0.6 0.5-1 1.4-0.3 0.8-0.3 2.1 0 1.1 0.3 1.9 0.3 0.9 0.9 1.5 0.7 0.5 1.7 0.5zm11.2-9.3q1.2 0 2 0.4 0.9 0.4 1.5 1.2 0.6 0.8 0.7 1.9h-1.6q-0.1-0.6-0.5-1-0.3-0.5-0.8-0.7-0.5-0.3-1.2-0.3-1.4 0-2.2 0.9-0.8 1-0.8 3 0 1.8 0.7 2.9 0.8 1 2.3 1 0.7 0 1.2-0.2 0.5-0.3 0.9-0.8 0.3-0.4 0.4-1h1.6q-0.1 1.1-0.7 1.9-0.6 0.7-1.5 1.1-0.9 0.4-2 0.4-1.3 0-2.4-0.6-1.1-0.6-1.7-1.8-0.6-1.2-0.6-2.9 0-1.6 0.5-2.8 0.6-1.2 1.7-1.9 1-0.7 2.5-0.7zm8 5.8q0 1 0.3 1.8 0.4 0.8 1 1.2 0.7 0.5 1.7 0.5 1 0 1.7-0.5 0.7-0.4 0.9-1.3h1.8q-0.2 1.1-0.9 1.8-0.6 0.7-1.5 1.1-1 0.3-2 0.3-1.4 0-2.5-0.6-1.1-0.6-1.7-1.8-0.6-1.2-0.6-2.8 0-1.7 0.5-2.9 0.6-1.2 1.6-1.9 1.1-0.7 2.6-0.7 1.5 0 2.5 0.6 1 0.7 1.5 1.8 0.5 1.1 0.5 2.7v0.7zm0-1.3h5.7q0-0.8-0.3-1.6-0.3-0.7-1-1.1-0.6-0.4-1.5-0.4-1 0-1.6 0.5-0.6 0.4-1 1.2-0.3 0.7-0.3 1.4zm13.6 6.2q-1.1 0-2-0.3-1-0.3-1.6-1-0.6-0.8-0.7-1.9h1.6q0.2 0.6 0.5 1 0.4 0.5 1 0.7 0.5 0.2 1.2 0.2 1 0 1.6-0.4 0.7-0.4 0.7-1.2 0-0.6-0.4-0.9-0.3-0.4-1-0.6l-2.1-0.5q-1.3-0.3-2-0.9-0.8-0.7-0.8-1.8 0-0.9 0.5-1.6 0.4-0.7 1.3-1.1 0.9-0.4 2.2-0.4 1.6 0 2.7 0.8 1 0.7 1.1 2.2h-1.7q-0.1-0.8-0.6-1.2-0.6-0.4-1.6-0.4-0.9 0-1.6 0.4-0.6 0.4-0.6 1.2 0 0.5 0.5 0.8 0.4 0.4 1.3 0.6l2 0.5q0.7 0.2 1.2 0.5 0.5 0.3 0.7 0.7 0.3 0.4 0.4 0.8 0.2 0.4 0.2 0.8 0 0.9-0.5 1.6-0.5 0.7-1.4 1.1-0.9 0.3-2.1 0.3zm10 0q-1 0-2-0.3-0.9-0.3-1.5-1-0.6-0.8-0.8-1.9h1.7q0.1 0.6 0.5 1 0.4 0.5 0.9 0.7 0.6 0.2 1.2 0.2 1.1 0 1.7-0.4 0.6-0.4 0.6-1.2 0-0.6-0.3-0.9-0.3-0.4-1-0.6l-2.2-0.5q-1.2-0.3-2-0.9-0.7-0.7-0.7-1.8 0-0.9 0.4-1.6 0.5-0.7 1.3-1.1 0.9-0.4 2.2-0.4 1.7 0 2.7 0.8 1.1 0.7 1.1 2.2h-1.6q-0.1-0.8-0.7-1.2-0.5-0.4-1.5-0.4-1 0-1.6 0.4-0.6 0.4-0.6 1.2 0 0.5 0.4 0.8 0.5 0.4 1.3 0.6l2.1 0.5q0.7 0.2 1.2 0.5 0.4 0.3 0.7 0.7 0.3 0.4 0.4 0.8 0.1 0.4 0.1 0.8 0 0.9-0.5 1.6-0.4 0.7-1.3 1.1-0.9 0.3-2.2 0.3zm7.9-4.9q0 1 0.3 1.8 0.4 0.8 1 1.2 0.7 0.5 1.7 0.5 1 0 1.7-0.5 0.7-0.4 0.9-1.3h1.8q-0.2 1.1-0.9 1.8-0.6 0.7-1.5 1.1-1 0.3-2 0.3-1.4 0-2.5-0.6-1.1-0.6-1.7-1.8-0.7-1.2-0.7-2.8 0-1.7 0.6-2.9 0.6-1.2 1.6-1.9 1.1-0.7 2.6-0.7 1.5 0 2.5 0.6 1 0.7 1.5 1.8 0.5 1.1 0.5 2.7v0.7zm0-1.3h5.7q0-0.8-0.3-1.6-0.3-0.7-1-1.1-0.6-0.4-1.5-0.4-1 0-1.6 0.5-0.6 0.4-1 1.2-0.3 0.7-0.3 1.4zm13.7 6.2q-2 0-3.2-1.3-1.2-1.4-1.2-4.1 0-1.6 0.5-2.8 0.5-1.2 1.4-1.8 1-0.7 2.4-0.7 0.7 0 1.3 0.2 0.6 0.2 1 0.5 0.4 0.3 0.7 0.6 0.2 0.3 0.4 0.5v-6.1h1.8v14.8h-1.4l-0.2-2.1q-0.1 0.3-0.3 0.7-0.2 0.4-0.6 0.8-0.4 0.4-1.1 0.6-0.6 0.2-1.5 0.2zm0.3-1.4q1.6 0 2.3-0.9 0.7-1 0.7-3.2-0.1-1.2-0.4-2-0.2-0.9-0.9-1.3-0.6-0.5-1.6-0.5-1.3 0-2.1 0.9-0.8 1-0.8 2.9 0 2 0.7 3.1 0.7 1 2.1 1zm7.4 1.2v-2.3h2.2v2.3zm8.4-12.7v-1.7h10.9v1.7h-4.4v12.7h-1.8v-12.7zm12.9 12.7v-14.8h1.8v6q0.3-0.4 0.7-0.8 0.4-0.4 1.1-0.6 0.6-0.2 1.4-0.2 1 0 1.9 0.3 0.8 0.4 1.3 1.1 0.4 0.7 0.4 1.7v7.3h-1.8v-7q0-0.9-0.6-1.4-0.7-0.5-1.7-0.5-0.7 0-1.3 0.2-0.6 0.2-1 0.7-0.4 0.4-0.4 1.1v6.9zm12.9-4.7q0 1 0.3 1.8 0.3 0.8 1 1.2 0.7 0.5 1.7 0.5 1 0 1.7-0.5 0.7-0.4 0.9-1.3h1.7q-0.2 1.1-0.8 1.8-0.7 0.7-1.6 1.1-0.9 0.3-1.9 0.3-1.4 0-2.5-0.6-1.1-0.6-1.8-1.8-0.6-1.2-0.6-2.8 0-1.7 0.6-2.9 0.5-1.2 1.6-1.9 1.1-0.7 2.6-0.7 1.4 0 2.4 0.6 1 0.7 1.6 1.8 0.5 1.1 0.5 2.7v0.7zm0-1.3h5.6q0-0.8-0.3-1.6-0.3-0.7-0.9-1.1-0.6-0.4-1.5-0.4-1 0-1.6 0.5-0.7 0.4-1 1.2-0.3 0.7-0.3 1.4zm-337 25h-2.3v6.5q0 0.5 0.1 0.8 0.1 0.2 0.4 0.3 0.3 0.1 0.8 0.1h1.1v1.2q-0.2 0.1-0.6 0.1-0.4 0.1-0.9 0.1-1.1 0-1.7-0.3-0.6-0.3-0.8-0.9-0.3-0.5-0.3-1.4v-6.5h-1.6v-1.3h1.7l0.4-3h1.4v3h2.3zm6.5 9.2q-1.4 0-2.5-0.6-1-0.6-1.6-1.8-0.6-1.2-0.6-3 0-1.6 0.5-2.8 0.6-1.2 1.6-1.9 1.1-0.7 2.6-0.7 1.5 0 2.5 0.7 1.1 0.6 1.6 1.8 0.6 1.2 0.6 2.9 0 1.6-0.5 2.8-0.5 1.2-1.6 1.9-1 0.7-2.6 0.7zm0-1.5q1 0 1.6-0.5 0.6-0.4 1-1.3 0.3-0.9 0.3-2.1 0-1.1-0.3-2-0.3-0.9-0.9-1.4-0.7-0.5-1.7-0.5-0.9 0-1.6 0.5-0.6 0.4-1 1.3-0.3 0.9-0.3 2.1 0 1.1 0.3 2 0.3 0.9 1 1.4 0.6 0.5 1.6 0.5zm12.1-7.7h-2.4v6.4q0 0.6 0.1 0.8 0.2 0.3 0.4 0.4 0.3 0 0.8 0h1.1v1.3q-0.2 0-0.6 0.1-0.3 0-0.9 0-1.1 0-1.7-0.3-0.6-0.2-0.8-0.8-0.2-0.6-0.2-1.4v-6.5h-1.7v-1.4h1.7l0.5-3h1.3v3h2.4zm5.4 9.2q-1 0-1.8-0.3-0.7-0.4-1.2-1.1-0.4-0.6-0.4-1.6 0-1.7 1.2-2.5 1.2-0.9 3.8-0.9l1.9-0.1v-0.8q0-0.9-0.6-1.5-0.5-0.6-1.7-0.6-0.9 0.1-1.6 0.5-0.7 0.4-0.9 1.3h-1.6q0-1 0.6-1.7 0.5-0.7 1.4-1.1 0.9-0.3 2.1-0.3 1.4 0 2.3 0.4 0.9 0.3 1.3 1.1 0.5 0.7 0.5 1.8v7.2h-1.6l-0.1-1.9q-0.6 1.2-1.6 1.7-0.9 0.4-2 0.4zm0.6-1.3q0.5 0 1-0.2 0.5-0.2 0.9-0.5 0.5-0.3 0.7-0.7 0.3-0.4 0.3-0.9v-1.7h-1.5q-1.2 0-2 0.2-0.8 0.2-1.2 0.7-0.4 0.5-0.4 1.2 0 0.9 0.6 1.4 0.6 0.5 1.6 0.5zm10.4 1.2q-0.8 0-1.3-0.2-0.5-0.2-0.8-0.6-0.3-0.4-0.4-0.9-0.1-0.5-0.1-1v-12.2h1.9v12q0 0.8 0.3 1.2 0.3 0.3 0.8 0.4h0.6v1.2q-0.3 0.1-0.5 0.1-0.3 0-0.5 0zm10.9 0.1q-1 0-1.8-0.3-0.8-0.4-1.2-1.1-0.5-0.6-0.5-1.6 0-1.7 1.2-2.5 1.2-0.9 3.9-0.9l1.8-0.1v-0.8q0-0.9-0.5-1.5-0.6-0.6-1.8-0.6-0.9 0.1-1.6 0.5-0.6 0.4-0.8 1.3h-1.7q0.1-1 0.6-1.7 0.5-0.7 1.4-1.1 0.9-0.3 2.2-0.3 1.3 0 2.2 0.4 0.9 0.3 1.4 1.1 0.4 0.7 0.4 1.8v7.2h-1.6l-0.1-1.9q-0.6 1.2-1.5 1.7-0.9 0.4-2 0.4zm0.5-1.3q0.5 0 1-0.2 0.6-0.2 1-0.5 0.4-0.3 0.7-0.7 0.2-0.4 0.2-0.9v-1.7h-1.5q-1.2 0-2 0.2-0.8 0.2-1.2 0.7-0.4 0.5-0.4 1.2 0 0.9 0.6 1.4 0.7 0.5 1.6 0.5zm7.9 1.1v-10.3h1.8v1.5q0.4-0.7 1.1-1.2 0.8-0.5 2-0.5 0.6 0 1.1 0.2 0.6 0.2 1.1 0.5 0.5 0.4 0.8 1 0.5-0.8 1.3-1.3 0.8-0.4 1.8-0.4 0.6 0 1.2 0.1 0.5 0.2 1 0.6 0.6 0.4 0.9 1.2 0.3 0.7 0.3 1.9v6.7h-1.9v-6.6q0-0.9-0.3-1.4-0.3-0.5-0.8-0.7-0.4-0.3-1-0.3-0.5 0-1 0.2-0.5 0.2-0.9 0.7-0.4 0.4-0.4 1.2v6.9h-1.8v-7.1q0-0.6-0.4-1-0.3-0.4-0.8-0.6-0.5-0.3-0.9-0.3-0.6 0-1.1 0.3-0.5 0.2-0.9 0.6-0.4 0.5-0.4 1.2v6.9zm21.4 0.2q-1.4 0-2.5-0.6-1-0.6-1.6-1.8-0.6-1.2-0.6-2.9 0-1.6 0.5-2.9 0.6-1.2 1.7-1.8 1-0.7 2.5-0.7 1.5 0 2.5 0.6 1.1 0.6 1.7 1.8 0.5 1.3 0.5 3 0 1.6-0.5 2.8-0.5 1.2-1.6 1.8-1 0.7-2.6 0.7zm0-1.4q1 0 1.6-0.5 0.7-0.5 1-1.4 0.3-0.8 0.3-2 0-1.2-0.3-2-0.3-0.9-0.9-1.5-0.6-0.5-1.7-0.5-0.9 0-1.5 0.5-0.7 0.5-1 1.3-0.4 0.9-0.4 2.2 0 1 0.3 1.9 0.3 0.9 1 1.4 0.6 0.6 1.6 0.6zm10.8 1.4q-0.8 0-1.5-0.2-0.8-0.2-1.3-0.7-0.6-0.4-0.9-1.1-0.3-0.6-0.3-1.5v-7h1.9v6.8q0 1 0.6 1.6 0.6 0.7 1.9 0.7 1.1 0 1.8-0.6 0.7-0.6 0.7-1.8v-6.7h1.8v10.3h-1.4l-0.2-2q-0.2 0.8-0.7 1.3-0.4 0.5-1.1 0.7-0.6 0.2-1.3 0.2zm7.8-0.2v-10.3h1.8v1.5q0.2-0.5 0.6-0.8 0.5-0.4 1.1-0.6 0.7-0.3 1.5-0.3 1 0 1.8 0.4 0.8 0.4 1.3 1.2 0.5 0.9 0.5 2.2v6.7h-1.8v-6.6q0-1.2-0.7-1.8-0.6-0.5-1.6-0.5-0.7 0-1.3 0.2-0.6 0.2-1 0.7-0.4 0.4-0.4 1.1v6.9zm16.3-9h-2.3v6.5q0 0.5 0.1 0.8 0.1 0.2 0.4 0.3 0.3 0.1 0.7 0.1h1.2v1.2q-0.2 0.1-0.6 0.1-0.4 0.1-1 0.1-1 0-1.6-0.3-0.6-0.3-0.8-0.9-0.3-0.6-0.3-1.4v-6.5h-1.7v-1.3h1.8l0.4-3h1.4v3h2.3zm10.8 9.2q-2 0-3.2-1.4-1.2-1.4-1.2-4.1 0-1.6 0.5-2.8 0.4-1.2 1.4-1.8 0.9-0.7 2.3-0.7 0.8 0 1.3 0.2 0.6 0.2 1 0.5 0.5 0.3 0.7 0.6 0.3 0.3 0.4 0.6v-6.2h1.9v14.9h-1.4l-0.2-2.2q-0.1 0.3-0.4 0.7-0.2 0.4-0.6 0.8-0.4 0.4-1 0.6-0.6 0.3-1.5 0.3zm0.3-1.5q1.6 0 2.2-0.9 0.7-1 0.7-3.1 0-1.3-0.3-2.1-0.3-0.9-0.9-1.3-0.6-0.4-1.7-0.4-1.3 0-2.1 0.9-0.7 0.9-0.8 2.9 0 1.9 0.8 3 0.7 1 2.1 1zm9.1-3.5q0 1 0.4 1.8 0.3 0.8 1 1.3 0.6 0.4 1.6 0.4 1 0 1.7-0.4 0.7-0.5 0.9-1.4h1.8q-0.2 1.1-0.8 1.8-0.7 0.7-1.6 1.1-0.9 0.4-1.9 0.4-1.5 0-2.6-0.7-1.1-0.6-1.7-1.8-0.6-1.2-0.6-2.8 0-1.6 0.5-2.9 0.6-1.2 1.7-1.9 1-0.7 2.5-0.7 1.5 0 2.5 0.6 1 0.7 1.5 1.8 0.6 1.2 0.6 2.7v0.7zm0-1.2h5.6q0-0.9-0.3-1.6-0.3-0.8-0.9-1.2-0.6-0.4-1.6-0.4-0.9 0-1.6 0.5-0.6 0.4-0.9 1.2-0.3 0.7-0.3 1.5zm13.6 6.2q-2 0-3.2-1.4-1.1-1.4-1.1-4.1 0-1.6 0.4-2.8 0.5-1.2 1.5-1.8 0.9-0.7 2.3-0.7 0.7 0 1.3 0.2 0.6 0.2 1 0.5 0.4 0.3 0.7 0.6 0.3 0.3 0.4 0.6v-6.2h1.8v14.9h-1.4l-0.2-2.2q-0.1 0.3-0.3 0.7-0.2 0.4-0.6 0.8-0.4 0.4-1 0.6-0.7 0.3-1.6 0.3zm0.4-1.5q1.5 0 2.2-0.9 0.7-1 0.7-3.1 0-1.3-0.3-2.1-0.3-0.9-0.9-1.3-0.7-0.4-1.7-0.4-1.3 0-2.1 0.9-0.8 0.9-0.8 2.9 0 1.9 0.7 3 0.8 1 2.2 1zm11.6 1.5q-0.8-0.1-1.5-0.3-0.7-0.2-1.3-0.6-0.5-0.5-0.9-1.1-0.3-0.7-0.3-1.6v-7h1.9v6.8q0 1.1 0.6 1.7 0.6 0.6 1.9 0.6 1.1 0 1.8-0.6 0.7-0.6 0.7-1.8v-6.7h1.9v10.4h-1.5l-0.2-2q-0.2 0.8-0.7 1.2-0.4 0.5-1 0.7-0.7 0.3-1.4 0.3zm11.8-10.8q1.1 0 2 0.4 0.9 0.5 1.4 1.2 0.6 0.8 0.7 1.9h-1.6q-0.1-0.6-0.4-1-0.4-0.5-0.9-0.7-0.5-0.3-1.2-0.3-1.4 0-2.2 1-0.8 0.9-0.8 2.9 0 1.8 0.7 2.9 0.8 1 2.3 1 0.7 0 1.2-0.2 0.6-0.3 0.9-0.8 0.3-0.4 0.4-0.9h1.6q-0.1 1-0.7 1.8-0.6 0.7-1.5 1.1-0.8 0.5-1.9 0.5-1.4 0-2.5-0.7-1.1-0.6-1.7-1.8-0.6-1.1-0.6-2.9 0-1.6 0.6-2.8 0.5-1.2 1.6-1.9 1-0.7 2.6-0.7zm11.5 1.6h-2.3v6.4q0 0.6 0.1 0.8 0.1 0.3 0.4 0.3 0.3 0.1 0.8 0.1h1.1v1.2q-0.2 0.1-0.6 0.2-0.4 0-0.9 0-1.1 0-1.7-0.3-0.6-0.3-0.8-0.8-0.2-0.6-0.2-1.4v-6.5h-1.7v-1.4h1.7l0.5-3h1.3v3h2.3zm3.7 4.3q0.1 0.9 0.4 1.7 0.3 0.8 1 1.3 0.6 0.5 1.6 0.5 1 0 1.7-0.5 0.8-0.5 0.9-1.3h1.8q-0.2 1-0.8 1.7-0.7 0.8-1.6 1.1-0.9 0.4-1.9 0.4-1.5 0-2.6-0.6-1.1-0.7-1.7-1.8-0.6-1.2-0.6-2.9 0-1.6 0.5-2.8 0.6-1.3 1.7-2 1-0.6 2.5-0.6 1.5 0 2.5 0.6 1 0.6 1.5 1.8 0.6 1.1 0.6 2.7v0.7zm0-1.3h5.6q0-0.9-0.3-1.6-0.3-0.7-0.9-1.1-0.6-0.4-1.6-0.4-0.9 0-1.6 0.4-0.6 0.5-0.9 1.2-0.3 0.7-0.3 1.5zm13.6 6.2q-2 0-3.2-1.4-1.1-1.4-1.1-4 0-1.6 0.4-2.8 0.5-1.2 1.5-1.9 0.9-0.6 2.3-0.6 0.7 0 1.3 0.1 0.6 0.2 1 0.5 0.4 0.3 0.7 0.6 0.3 0.3 0.4 0.6v-6.2h1.8v14.9h-1.4l-0.2-2.1q-0.1 0.3-0.3 0.7-0.2 0.4-0.6 0.7-0.4 0.4-1 0.7-0.7 0.2-1.6 0.2zm0.4-1.4q1.5 0 2.2-1 0.7-0.9 0.7-3.1 0-1.2-0.3-2.1-0.3-0.8-0.9-1.3-0.7-0.4-1.7-0.4-1.3 0-2.1 0.9-0.8 0.9-0.8 2.9 0 1.9 0.7 3 0.8 1.1 2.2 1.1zm18.3-9.1v1.3h-2.6v9h-1.8v-9h-2.2v-1.3h2.2v-1.6q0-1.3 0.6-1.9 0.6-0.7 1.9-0.7h1.9l0.1 1.3h-1.6q-0.6 0-0.9 0.4-0.2 0.3-0.2 1v1.5zm2.3 10.3v-10.3h1.8v1.9q0.2-0.7 0.7-1.2 0.5-0.5 1.1-0.7 0.6-0.2 1.2-0.2 0.2 0 0.5 0 0.2 0 0.3 0.1v1.8q-0.1-0.1-0.4-0.1-0.2 0-0.4 0-0.6-0.1-1.1 0-0.6 0.1-1 0.4-0.4 0.3-0.6 0.8-0.3 0.4-0.3 1.1v6.4zm11.7 0.2q-1.5 0-2.5-0.6-1.1-0.6-1.7-1.8-0.6-1.2-0.6-2.9 0-1.7 0.6-2.9 0.5-1.2 1.6-1.9 1-0.6 2.6-0.6 1.4 0 2.4 0.6 1.1 0.6 1.7 1.8 0.6 1.2 0.6 3 0 1.5-0.6 2.7-0.5 1.3-1.6 1.9-1 0.7-2.5 0.7zm0-1.5q0.9 0 1.5-0.4 0.7-0.5 1-1.4 0.3-0.9 0.3-2.1 0-1.1-0.3-2-0.2-0.8-0.9-1.4-0.6-0.5-1.6-0.5-1 0-1.6 0.5-0.7 0.4-1 1.3-0.3 0.9-0.3 2.1 0 1.1 0.3 2 0.3 0.9 0.9 1.4 0.6 0.5 1.7 0.5zm7.1 1.3v-10.3h1.8v1.5q0.4-0.7 1.1-1.2 0.8-0.5 2-0.5 0.6 0 1.1 0.1 0.6 0.2 1.1 0.6 0.5 0.4 0.8 0.9 0.5-0.7 1.3-1.2 0.8-0.4 1.8-0.4 0.6 0 1.2 0.1 0.5 0.2 1 0.6 0.6 0.4 0.9 1.2 0.3 0.7 0.3 1.8v6.8h-1.9v-6.6q0-0.9-0.3-1.4-0.3-0.6-0.8-0.8-0.4-0.2-1-0.2-0.5 0-1 0.2-0.5 0.2-0.9 0.7-0.4 0.4-0.4 1.2v6.9h-1.8v-7.1q0-0.6-0.4-1-0.3-0.4-0.8-0.7-0.5-0.2-0.9-0.2-0.6 0-1.1 0.2-0.5 0.2-0.9 0.7-0.4 0.5-0.4 1.2v6.9zm22.8 3.3q-0.9 0-1.2-0.1-0.4-0.2-0.4-0.2v-1.2l1.1 0.1q0.6 0 0.9-0.1 0.4-0.1 0.7-0.3 0.2-0.2 0.3-0.4 0.1-0.2 0.2-0.4l0.4-1-4.1-10h1.9l3.1 7.9 3-7.9h1.8l-4.4 11.1q-0.4 1-0.9 1.5-0.5 0.6-1.1 0.8-0.6 0.2-1.3 0.2zm13.4-3.1q-1.4 0-2.5-0.6-1.1-0.6-1.7-1.8-0.5-1.2-0.5-2.9 0-1.7 0.5-2.9 0.6-1.2 1.6-1.9 1.1-0.6 2.6-0.6 1.4 0 2.5 0.6 1 0.6 1.6 1.8 0.6 1.2 0.6 3 0 1.5-0.5 2.7-0.6 1.3-1.6 1.9-1.1 0.7-2.6 0.7zm0-1.5q0.9 0 1.6-0.4 0.6-0.5 0.9-1.4 0.4-0.9 0.4-2.1 0-1.1-0.3-2-0.3-0.8-0.9-1.4-0.7-0.5-1.7-0.5-0.9 0-1.6 0.5-0.6 0.4-1 1.3-0.3 0.9-0.3 2.1 0 1.1 0.3 2 0.3 0.9 0.9 1.4 0.7 0.5 1.7 0.5zm10.8 1.5q-0.9 0-1.6-0.2-0.7-0.3-1.2-0.7-0.6-0.4-0.9-1.1-0.3-0.7-0.3-1.5v-7h1.8v6.8q0 1 0.7 1.6 0.6 0.7 1.8 0.7 1.2 0 1.9-0.6 0.7-0.6 0.7-1.8v-6.7h1.8v10.3h-1.5l-0.1-2q-0.2 0.8-0.7 1.3-0.4 0.5-1.1 0.7-0.6 0.2-1.3 0.2zm7.7-0.2v-10.3h1.8v1.9q0.3-0.7 0.7-1.2 0.5-0.5 1.1-0.7 0.6-0.2 1.3-0.2 0.2 0 0.4 0 0.2 0 0.3 0.1v1.8q-0.1-0.1-0.3-0.1-0.3 0-0.4 0-0.7-0.1-1.2 0-0.5 0.1-0.9 0.4-0.5 0.3-0.7 0.8-0.2 0.4-0.2 1.1v6.4zm-294 28.2q-1 0-1.8-0.4-0.8-0.3-1.2-1-0.4-0.7-0.4-1.6 0-1.7 1.2-2.6 1.2-0.8 3.8-0.9h1.9v-0.8q0-1-0.6-1.5-0.6-0.6-1.8-0.6-0.9 0-1.5 0.4-0.7 0.4-0.9 1.4h-1.6q0-1 0.5-1.7 0.5-0.7 1.4-1.1 1-0.3 2.2-0.3 1.4 0 2.3 0.3 0.9 0.4 1.3 1.2 0.4 0.7 0.4 1.8v7.2h-1.5l-0.2-1.9q-0.6 1.2-1.5 1.6-0.9 0.5-2 0.5zm0.5-1.3q0.6 0 1.1-0.2 0.5-0.2 0.9-0.5 0.4-0.4 0.7-0.8 0.3-0.4 0.3-0.8v-1.8l-1.6 0.1q-1.2 0-2 0.2-0.7 0.2-1.1 0.7-0.4 0.5-0.4 1.2 0 0.9 0.6 1.4 0.6 0.5 1.5 0.5zm12-9.4q1.1 0 2 0.4 0.9 0.4 1.5 1.2 0.5 0.8 0.7 1.8h-1.7q0-0.5-0.4-1-0.3-0.4-0.8-0.7-0.6-0.3-1.3-0.3-1.3 0-2.1 1-0.9 1-0.9 2.9 0 1.8 0.8 2.9 0.8 1.1 2.3 1.1 0.7 0 1.2-0.3 0.5-0.3 0.8-0.7 0.4-0.5 0.5-1h1.6q-0.2 1-0.7 1.8-0.6 0.8-1.5 1.2-0.9 0.4-2 0.4-1.4 0-2.4-0.6-1.1-0.6-1.7-1.8-0.6-1.2-0.6-2.9 0-1.6 0.5-2.9 0.6-1.2 1.6-1.9 1.1-0.6 2.6-0.6zm10.8 0q1.1 0 2 0.4 0.9 0.4 1.5 1.2 0.5 0.8 0.7 1.8h-1.7q-0.1-0.5-0.4-1-0.3-0.4-0.8-0.7-0.6-0.3-1.3-0.3-1.3 0-2.1 1-0.9 1-0.9 2.9 0 1.8 0.8 2.9 0.8 1.1 2.2 1.1 0.8 0 1.3-0.3 0.5-0.3 0.8-0.7 0.4-0.5 0.4-1h1.6q-0.1 1-0.7 1.8-0.5 0.8-1.4 1.2-0.9 0.4-2 0.4-1.4 0-2.5-0.6-1-0.6-1.6-1.8-0.6-1.2-0.7-2.9 0.1-1.6 0.6-2.9 0.6-1.2 1.6-1.9 1.1-0.6 2.6-0.6zm10.8 10.7q-1.4 0-2.5-0.6-1.1-0.6-1.7-1.8-0.6-1.2-0.6-2.9 0-1.7 0.6-2.9 0.5-1.2 1.6-1.9 1.1-0.6 2.6-0.6 1.4 0 2.5 0.6 1 0.6 1.6 1.8 0.6 1.2 0.6 3 0 1.5-0.6 2.7-0.5 1.3-1.5 1.9-1.1 0.7-2.6 0.7zm0-1.5q0.9 0 1.6-0.4 0.6-0.5 0.9-1.4 0.4-0.9 0.4-2.1 0-1.1-0.3-2-0.3-0.8-1-1.4-0.6-0.5-1.6-0.5-1 0-1.6 0.5-0.7 0.4-1 1.3-0.3 0.9-0.3 2.1 0 1.1 0.3 2 0.3 0.9 0.9 1.4 0.7 0.5 1.7 0.5zm10.7 1.5q-0.8 0-1.5-0.2-0.7-0.3-1.3-0.7-0.5-0.4-0.8-1.1-0.3-0.7-0.3-1.5v-7h1.8v6.8q0 1 0.6 1.6 0.7 0.7 1.9 0.7 1.2 0 1.8-0.6 0.7-0.6 0.7-1.8v-6.7h1.9v10.3h-1.5l-0.2-2q-0.2 0.8-0.6 1.3-0.5 0.5-1.1 0.7-0.6 0.2-1.4 0.2zm7.8-0.2v-10.3h1.8v1.5q0.2-0.5 0.7-0.9 0.4-0.3 1.1-0.6 0.6-0.2 1.4-0.2 1 0 1.8 0.4 0.9 0.4 1.4 1.2 0.5 0.8 0.5 2.1v6.8h-1.9v-6.6q0-1.2-0.6-1.8-0.7-0.6-1.7-0.6-0.7 0-1.3 0.3-0.6 0.2-1 0.6-0.4 0.5-0.4 1.2v6.9zm16.4-9h-2.4v6.4q0 0.6 0.1 0.8 0.2 0.3 0.4 0.4 0.3 0 0.8 0h1.1v1.3q-0.2 0.1-0.6 0.1-0.3 0-0.9 0-1.1 0-1.7-0.2-0.6-0.3-0.8-0.9-0.2-0.6-0.2-1.4v-6.5h-1.7v-1.3h1.7l0.5-3.1h1.3v3h2.4zm9.2-1.3v10.3h-1.8v-10.3zm0.1-4.1v1.9h-1.9v-1.9zm6.9 14.6q-1.1 0-2-0.3-1-0.3-1.6-1-0.6-0.8-0.7-1.9h1.6q0.2 0.6 0.5 1 0.4 0.5 1 0.7 0.5 0.2 1.2 0.2 1 0 1.6-0.4 0.7-0.4 0.7-1.2 0-0.6-0.4-0.9-0.3-0.4-1-0.6l-2.1-0.5q-1.3-0.3-2-0.9-0.8-0.7-0.8-1.8 0-0.9 0.4-1.6 0.5-0.7 1.4-1.1 0.8-0.4 2.2-0.4 1.6 0 2.7 0.8 1 0.7 1 2.2h-1.6q-0.1-0.8-0.7-1.2-0.5-0.4-1.5-0.4-1 0-1.6 0.4-0.6 0.4-0.6 1.2 0 0.5 0.4 0.8 0.5 0.4 1.3 0.6l2.1 0.5q0.7 0.2 1.2 0.5 0.5 0.3 0.7 0.7 0.3 0.4 0.4 0.8 0.1 0.4 0.1 0.8 0 0.9-0.4 1.6-0.5 0.7-1.4 1.1-0.9 0.3-2.1 0.3zm22.4-5.7q0 1.8-0.5 3.1-0.6 1.2-1.9 1.9-1.3 0.7-3.4 0.7-2.1 0-3.3-0.7-1.3-0.7-1.9-2-0.5-1.3-0.5-3.1v-8.8h2.9v9q0 1.7 0.8 2.4 0.8 0.8 2 0.8 0.9 0 1.5-0.4 0.6-0.3 1-1 0.4-0.7 0.4-1.8v-9h2.9zm8.4 5.7q-1.1 0-2.1-0.3-1.1-0.3-1.9-0.8-0.9-0.5-1.4-1.3-0.6-0.8-0.7-1.9h3q0.2 0.6 0.6 1.1 0.4 0.4 1 0.7 0.7 0.2 1.5 0.2 0.8 0 1.4-0.2 0.7-0.2 1.1-0.6 0.4-0.4 0.4-1 0-0.6-0.4-0.9-0.3-0.4-0.8-0.6-0.6-0.2-1.3-0.4l-2.5-0.5q-1.6-0.3-2.6-1.3-0.9-1-1-2.6 0-1.4 0.8-2.4 0.7-1 2-1.5 1.2-0.6 2.8-0.6 1.9 0.1 3.1 0.6 1.3 0.6 2 1.6 0.6 1 0.7 2.2h-3q0-0.7-0.4-1.2-0.4-0.4-1-0.6-0.6-0.2-1.4-0.2-0.5 0-1 0.1-0.5 0.1-0.8 0.4-0.3 0.2-0.5 0.5-0.2 0.3-0.2 0.7 0 0.7 0.4 1.1 0.4 0.3 1.6 0.6l2.5 0.5q1.3 0.3 2.1 0.8 0.8 0.5 1.2 1.1 0.4 0.7 0.5 1.3 0.1 0.7 0.1 1.3 0 1.1-0.7 2.1-0.8 0.9-2.1 1.4-1.3 0.6-3 0.6zm13.9-1.1q-1.7-1-1.9-3.2h3q0.3 0.9 1.1 1.5 0.8 0.5 2 0.5 0.7 0 1.2-0.3 0.6-0.2 0.9-0.6 0.3-0.4 0.3-0.9 0-0.8-0.5-1.2-0.5-0.4-1.5-0.7l-2.4-0.5q-1.7-0.3-2.7-1.3-0.9-1-1-2.6 0-1.4 0.8-2.4 0.7-1 2-1.5 0.8-0.3 1.6-0.5v-1.9h2.6v2q0.8 0.1 1.5 0.4 1.2 0.6 1.9 1.6 0.6 1 0.6 2.2h-3q-0.1-0.9-0.6-1.5-0.5-0.5-1.7-0.5-0.6 0-1 0.1-0.5 0.1-0.8 0.4-0.4 0.2-0.6 0.5-0.1 0.3-0.1 0.7 0 0.7 0.4 1 0.4 0.4 1.6 0.7l2.3 0.6q2 0.4 2.9 1.6 0.8 1.1 0.8 2.8 0 1.2-0.6 2.1-0.7 1-2 1.5-0.7 0.3-1.7 0.4v1.8h-2.5v-1.8q-1.7-0.2-2.9-1zm14.2 0.9v-10.8h-2.6v-1.7q1.2 0 2-0.2 0.8-0.3 1.1-0.7 0.4-0.5 0.5-1.1h1.9v14.5zm11.6-14.7q2.6 0 4.1 2 1.5 1.9 1.5 5.5 0 3.6-1.5 5.5-1.5 1.9-4.1 1.9-2.6 0-4.1-1.9-1.5-1.9-1.5-5.5 0-2.4 0.7-4.1 0.7-1.6 1.9-2.5 1.3-0.9 3-0.9zm0 12.5q1.3 0 1.9-1.1 0.6-1.2 0.6-3.9 0-2.8-0.6-4-0.6-1.2-1.9-1.2-1.3 0-1.9 1.2-0.6 1.3-0.6 4 0 2.7 0.6 3.9 0.6 1.1 1.9 1.1zm13.8-12.3h2.9v8.8h2.2v2.5h-2.2v3.2h-2.8v-3.2h-6.7v-2.4zm-3.9 8.8h4v-5.3zm10.5 5.6v-3.1h3.2v3.1zm10.6 0.3q-1.3 0-2.5-0.6-1.2-0.5-1.9-1.4-0.7-1-0.8-2.2h2.8q0.1 0.8 0.8 1.3 0.6 0.6 1.5 0.6 1.1 0 1.8-0.5 0.8-0.5 1.2-1.6 0.4-1.1 0.3-2.8-0.3 0.5-0.8 0.9-0.5 0.4-1.1 0.6-0.7 0.3-1.5 0.3-1.5 0-2.6-0.6-1.1-0.5-1.8-1.6-0.6-1-0.6-2.4 0-1.4 0.6-2.5 0.7-1.2 1.9-1.8 1.3-0.6 2.9-0.6 1.8 0 3.2 0.9 1.3 0.8 2 2.4 0.7 1.6 0.7 3.8 0 2.6-0.7 4.3-0.7 1.8-2.1 2.6-1.4 0.9-3.3 0.9zm0.3-7.8q0.6 0 1.2-0.2 0.6-0.3 0.9-0.7 0.4-0.5 0.4-0.9 0-1-0.3-1.7-0.3-0.7-0.9-1-0.6-0.4-1.3-0.4-0.7 0-1.2 0.3-0.6 0.3-0.9 0.9-0.3 0.6-0.3 1.4 0 1.1 0.7 1.7 0.6 0.6 1.7 0.6zm13.1-7.1q2.6 0 4.1 1.9 1.5 1.9 1.5 5.5 0 3.6-1.5 5.6-1.5 1.9-4.1 1.9-2.6 0-4.1-1.9-1.5-2-1.5-5.5 0-2.4 0.7-4.1 0.7-1.7 2-2.5 1.2-0.9 2.9-0.9zm0 12.5q1.3 0 1.9-1.2 0.6-1.1 0.6-3.8 0-2.8-0.6-4-0.6-1.2-1.9-1.2-1.3 0-1.9 1.2-0.6 1.2-0.6 4 0 2.7 0.6 3.8 0.6 1.2 1.9 1.2zm7.6 2.1v-2.3h2.2v2.3z"/></g></svg>