<svg version="1.2" xmlns="http://www.w3.org/2000/svg" viewBox="0 0 269 505" width="269" height="505"><defs><linearGradient id="P" gradientUnits="userSpaceOnUse"/><linearGradient id="g1" x2="1" href="#P" gradientTransform="matrix(0,12.324,-242.641,0,14.015,3)"><stop stop-color="#454545"/><stop offset=".23" stop-color="#999"/><stop offset="1" stop-color="#fff"/></linearGradient><linearGradient id="g2" x2="1" href="#P" gradientTransform="matrix(-9.461,0,0,-326.168,264.103,88.747)"><stop stop-color="#fff" stop-opacity=".01"/><stop offset=".22" stop-color="#bababa" stop-opacity="1"/><stop offset=".55" stop-color="#fff" stop-opacity=".01"/><stop offset="1" stop-color="#fff" stop-opacity=".01"/></linearGradient><linearGradient id="g3" x2="1" href="#P" gradientTransform="matrix(9.476,0,0,326.679,6.568,88.487)"><stop stop-color="#fff" stop-opacity=".01"/><stop offset=".22" stop-color="#bababa" stop-opacity="1"/><stop offset=".55" stop-color="#fff" stop-opacity=".01"/><stop offset="1" stop-color="#fff" stop-opacity=".01"/></linearGradient><clipPath clipPathUnits="userSpaceOnUse" id="cp1"><path d="m112.68 15.44h-74.41c-11.1 0-19.2 7.57-19.2 17.45v422.39c0 12.88 12.51 24.29 26.64 24.29h179.34c13.61 0 26.64-11.5 26.64-24.29v-421.25c0-11.84-8.79-18.52-19.2-18.59h-75.59c-0.28 0.05-5.47 2.19-7.67 7.57-2.19 5.38-6.61 9.67-11.44 9.67h-5.62c-2.3 0-8.35-2.23-11.41-9.67-3.06-7.44-7.8-7.52-8.08-7.57z"/></clipPath><clipPath clipPathUnits="userSpaceOnUse" id="cp2"><path d="m61 181h149v122h-149z"/></clipPath><clipPath clipPathUnits="userSpaceOnUse" id="cp3"><path d="m70 321h131v30h-131z"/></clipPath></defs><style>.a{fill:#213648}.b{opacity:.4;fill:url(#g1)}.c{opacity:.7;fill:url(#g2)}.d{opacity:.7;fill:url(#g3)}.e{fill:#2e423c}.f{fill:#36536b}.g{fill:#fbfcfe}.h{opacity:.3;fill:#ba4270}.i{fill:none;stroke:#ba4270;stroke-width:3}.j{fill:#ba4270}</style><path fill-rule="evenodd" class="a" d="m39.8 3.6h191.2c18.4 0 33.2 14.2 33.2 31.8v435.2c0 17.6-14.8 31.8-33.2 31.8h-191.2c-18.4 0-33.2-14.2-33.2-31.8v-435.2c0-17.6 14.8-31.8 33.2-31.8z"/><path fill-rule="evenodd" class="b" d="m231.7 3h-192.8q-13.5 0.8-24.9 12.3c4.9-4.2 13.6-10 25.2-10 0 0 184.6 0 192.3 0 11.5 0 20.3 5.8 25.2 10q-11.4-11.5-25-12.3z"/><path fill-rule="evenodd" class="c" d="m259 465.7v-427.7c0-11.5-4.2-15.7-6.7-18.5-2.5-2.7-2.7-4.1 1-2 3.6 2 10.8 8 10.8 20.5v427.7c0 12.4-7.2 18.4-10.8 20.5-3.7 2-3.5 0.6-1-2.1 2.5-2.7 6.7-7 6.7-18.4z"/><path fill-rule="evenodd" class="d" d="m11.7 465.7v-427.7c0-11.5 4.2-15.7 6.7-18.5 2.5-2.7 2.6-4.1-1-2-3.6 2-10.8 8-10.8 20.5v427.7c0 12.4 7.2 18.4 10.8 20.5 3.6 2 3.5 0.6 1-2.1-2.5-2.7-6.7-7-6.7-18.4z"/><path fill-rule="evenodd" class="e" d="m4 106.6c0-1.1 0.9-2 2-2h1c1.1 0 2 0.9 2 2v60.3c0 1.1-0.9 2-2 2h-1c-1.1 0-2-0.9-2-2z"/><path fill-rule="evenodd" class="e" d="m261.5 159c0-1.1 0.9-2 2-2h1c1.1 0 2 0.9 2 2v43c0 1.1-0.9 2-2 2h-1c-1.1 0-2-0.9-2-2z"/><path fill-rule="evenodd" class="f" d="m112.7 15.4h-74.4c-11.1 0-19.2 7.6-19.2 17.5v422.4c0 12.9 12.5 24.3 26.6 24.3h179.3c13.7 0 26.7-11.5 26.7-24.3v-421.3c0-11.8-8.8-18.5-19.2-18.6h-75.6c-0.3 0.1-5.5 2.2-7.7 7.6-2.2 5.4-6.6 9.7-11.4 9.7h-5.6c-2.3 0-8.4-2.3-11.4-9.7-3.1-7.4-7.8-7.5-8.1-7.6z"/><g clip-path="url(#cp1)"></g><path class="g" d="m47 150c0-2.8 2.2-5 5-5h166c2.8 0 5 2.2 5 5v181c0 2.8-2.2 5-5 5h-166c-2.8 0-5-2.2-5-5z"/><g clip-path="url(#cp2)"><path fill-rule="evenodd" class="f" d="m80.6 263v-9.4h3.2q1 0 1.8 0.3 0.8 0.4 1.2 1 0.5 0.7 0.5 1.7 0 0.9-0.5 1.6-0.4 0.6-1.1 1-0.8 0.3-1.8 0.3h-2.1v3.5zm1.3-4.5h2q1 0 1.6-0.5 0.6-0.6 0.6-1.5 0-0.9-0.6-1.4-0.6-0.5-1.6-0.5h-2zm8.4 4.6q-0.7 0-1.2-0.2-0.5-0.2-0.7-0.7-0.3-0.4-0.3-1 0-1.1 0.8-1.7 0.7-0.5 2.5-0.6h1.2v-0.5q0-0.7-0.4-1-0.4-0.4-1.2-0.4-0.5 0-1 0.3-0.4 0.3-0.5 0.9h-1.1q0-0.7 0.4-1.1 0.3-0.5 0.9-0.7 0.6-0.3 1.4-0.3 0.9 0 1.5 0.3 0.5 0.2 0.8 0.7 0.3 0.5 0.3 1.2v4.7h-1l-0.1-1.3q-0.4 0.8-1 1.1-0.6 0.3-1.3 0.3zm0.4-0.8q0.3 0 0.6-0.2 0.4-0.1 0.6-0.3 0.3-0.2 0.5-0.5 0.2-0.2 0.2-0.5v-1.2l-1 0.1q-0.8 0-1.3 0.1-0.5 0.2-0.8 0.5-0.3 0.3-0.3 0.8 0 0.5 0.4 0.8 0.4 0.4 1.1 0.4zm5.4 2.8q-0.6 0-0.8 0-0.2-0.1-0.2-0.1v-0.8h0.7q0.3 0 0.6 0 0.2-0.1 0.4-0.2 0.1-0.1 0.2-0.3 0.1-0.1 0.2-0.2l0.2-0.7-2.6-6.5h1.2l2 5.2 1.9-5.2h1.2l-2.8 7.2q-0.3 0.6-0.6 1-0.3 0.4-0.7 0.5-0.4 0.1-0.9 0.1zm6.2-2.1v-6.7h1.1v0.9q0.3-0.4 0.8-0.7 0.5-0.4 1.3-0.4 0.3 0 0.7 0.2 0.4 0.1 0.7 0.3 0.3 0.3 0.5 0.6 0.3-0.5 0.9-0.8 0.5-0.3 1.2-0.3 0.3 0 0.7 0.2 0.4 0.1 0.7 0.3 0.3 0.3 0.5 0.8 0.3 0.5 0.3 1.2v4.4h-1.3v-4.3q0-0.6-0.1-0.9-0.2-0.4-0.6-0.5-0.3-0.1-0.6-0.1-0.3 0-0.7 0.1-0.3 0.1-0.6 0.4-0.2 0.3-0.2 0.8v4.5h-1.2v-4.6q0-0.4-0.2-0.7-0.3-0.3-0.6-0.4-0.3-0.1-0.6-0.1-0.3 0-0.7 0.1-0.3 0.1-0.6 0.4-0.2 0.3-0.2 0.8v4.5zm12-3.1q0 0.6 0.2 1.2 0.2 0.5 0.6 0.8 0.5 0.3 1.1 0.3 0.7 0 1.1-0.3 0.5-0.3 0.6-0.9h1.2q-0.2 0.7-0.6 1.2-0.4 0.4-1 0.7-0.6 0.2-1.2 0.2-1 0-1.7-0.4-0.7-0.4-1.1-1.2-0.4-0.7-0.4-1.8 0-1.1 0.3-1.9 0.4-0.8 1.1-1.2 0.7-0.5 1.7-0.5 0.9 0 1.6 0.5 0.6 0.4 1 1.1 0.3 0.8 0.3 1.8v0.4zm0-0.8h3.7q0-0.6-0.2-1-0.2-0.5-0.6-0.8-0.4-0.2-1-0.2-0.7 0-1.1 0.3-0.4 0.3-0.6 0.7-0.2 0.5-0.2 1zm6.4 3.9v-6.7h1.1v0.9q0.2-0.2 0.5-0.5 0.3-0.2 0.7-0.4 0.4-0.1 0.9-0.1 0.7 0 1.2 0.2 0.6 0.3 0.9 0.8 0.3 0.6 0.3 1.4v4.4h-1.2v-4.3q0-0.8-0.4-1.1-0.4-0.4-1.1-0.4-0.4 0-0.8 0.1-0.4 0.2-0.7 0.5-0.2 0.3-0.2 0.7v4.5zm10.5-5.9h-1.5v4.2q0 0.4 0 0.6 0.1 0.1 0.3 0.2 0.2 0 0.5 0h0.7v0.8q-0.1 0.1-0.4 0.1-0.2 0-0.6 0-0.7 0-1.1-0.2-0.3-0.2-0.5-0.5-0.2-0.4-0.2-0.9v-4.3h-1v-0.8h1.1l0.3-2h0.9v2h1.5zm7 5.9q-0.9 0-1.6-0.4-0.7-0.4-1.1-1.1-0.4-0.8-0.4-1.9 0-1.1 0.4-1.9 0.3-0.8 1-1.2 0.7-0.4 1.7-0.4 0.9 0 1.6 0.4 0.7 0.4 1.1 1.2 0.4 0.7 0.4 1.9 0 1-0.4 1.8-0.3 0.8-1 1.2-0.7 0.4-1.7 0.4zm0-0.9q0.6 0 1-0.3 0.4-0.3 0.7-0.9 0.2-0.6 0.2-1.4 0-0.7-0.2-1.2-0.2-0.6-0.6-1-0.4-0.3-1.1-0.3-0.6 0-1 0.3-0.5 0.3-0.7 0.9-0.2 0.5-0.2 1.3 0 0.8 0.2 1.3 0.2 0.6 0.6 1 0.4 0.3 1.1 0.3zm8.1-5.9v0.9h-1.7v5.8h-1.2v-5.8h-1.4v-0.9h1.4v-1.1q0-0.8 0.4-1.2 0.4-0.4 1.3-0.4h1.2v0.9h-1q-0.4 0-0.5 0.2-0.2 0.2-0.2 0.7v0.9zm5.2 6.2q-1.1-0.7-1.3-2.1l2-0.1q0.2 0.7 0.7 1 0.5 0.3 1.3 0.3 0.5 0 0.8-0.1 0.4-0.2 0.6-0.4 0.2-0.3 0.2-0.6 0-0.6-0.3-0.8-0.4-0.3-1.1-0.4l-1.5-0.4q-1.1-0.2-1.7-0.8-0.7-0.6-0.7-1.7 0-0.9 0.5-1.6 0.5-0.6 1.3-1 0.5-0.2 1.1-0.2v-1.3h1.6v1.3q0.6 0.1 1 0.3 0.8 0.4 1.2 1 0.5 0.6 0.4 1.4h-1.9q-0.1-0.6-0.4-0.9-0.3-0.4-1.1-0.4-0.4 0-0.7 0.1-0.3 0.1-0.5 0.2-0.2 0.2-0.3 0.4-0.1 0.2-0.1 0.5 0 0.4 0.2 0.6 0.3 0.2 1.1 0.4l1.5 0.4q1.3 0.3 1.8 1.1 0.6 0.7 0.6 1.8 0 0.8-0.4 1.4-0.5 0.6-1.3 0.9-0.5 0.2-1.1 0.3v1.2h-1.6v-1.2q-1.2-0.1-1.9-0.6zm10.9 0.7q-0.9 0-1.7-0.4-0.7-0.3-1.2-0.9-0.5-0.7-0.5-1.5h1.8q0.1 0.6 0.5 0.9 0.4 0.4 1 0.4 0.7 0 1.2-0.4 0.5-0.3 0.8-1 0.2-0.7 0.1-1.8-0.1 0.3-0.5 0.6-0.3 0.3-0.7 0.4-0.5 0.1-1 0.1-0.9 0-1.7-0.3-0.7-0.4-1.1-1-0.4-0.7-0.4-1.6 0-1 0.4-1.7 0.4-0.7 1.2-1.1 0.8-0.4 1.9-0.4 1.2 0 2.1 0.6 0.8 0.5 1.3 1.6 0.5 1 0.5 2.4 0 1.7-0.5 2.8-0.5 1.1-1.4 1.7-0.9 0.6-2.1 0.6zm0.1-5.1q0.4 0 0.8-0.1 0.4-0.2 0.6-0.5 0.3-0.3 0.3-0.6 0-0.6-0.2-1-0.2-0.5-0.6-0.7-0.4-0.3-0.9-0.3-0.4 0-0.8 0.2-0.3 0.2-0.5 0.6-0.2 0.4-0.2 0.9 0 0.7 0.4 1.1 0.5 0.4 1.1 0.4zm5.1 4.9v-1.4q0-0.7 0.2-1.2 0.3-0.6 0.7-1 0.5-0.3 1-0.6 0.5-0.3 1-0.6 0.6-0.2 1-0.5 0.4-0.3 0.7-0.6 0.3-0.3 0.3-0.8 0-0.5-0.4-0.9-0.4-0.3-1.1-0.3-0.7 0-1.2 0.4-0.5 0.4-0.6 1.2h-1.8q0-0.9 0.4-1.6 0.4-0.8 1.2-1.2 0.8-0.4 2.1-0.4 1 0 1.8 0.3 0.7 0.4 1.2 1 0.4 0.7 0.4 1.5 0 0.7-0.3 1.2-0.2 0.6-0.7 0.9-0.4 0.4-0.9 0.7-0.5 0.2-1 0.5-0.5 0.2-1 0.4-0.4 0.3-0.7 0.6-0.2 0.3-0.2 0.7v0.1h4.8v1.6zm11.6-9.5q1.7 0 2.6 1.2 1 1.3 1 3.6 0 2.4-1 3.6-0.9 1.3-2.6 1.3-1.7 0-2.7-1.3-0.9-1.2-0.9-3.6 0-1.5 0.4-2.6 0.4-1.1 1.2-1.7 0.9-0.5 2-0.5zm0 8.1q0.8 0 1.2-0.7 0.4-0.8 0.4-2.6 0-1.8-0.4-2.5-0.4-0.8-1.2-0.8-0.9 0-1.3 0.8-0.4 0.7-0.4 2.5 0 1.8 0.4 2.5 0.4 0.8 1.3 0.8zm8.9-8h1.8v5.7h1.5v1.6h-1.5v2.1h-1.8v-2.1h-4.3v-1.5zm-2.6 5.7h2.6v-3.4zm-98.1 14.9v6.7h-1.2v-6.7zm0.1-2.7v1.3h-1.3v-1.3zm4.4 9.6q-0.7 0-1.3-0.3-0.6-0.2-1-0.6-0.4-0.5-0.5-1.2h1.1q0.1 0.4 0.3 0.6 0.3 0.3 0.6 0.4 0.4 0.2 0.8 0.2 0.7 0 1.1-0.3 0.4-0.3 0.4-0.8 0-0.3-0.2-0.6-0.2-0.2-0.7-0.3l-1.4-0.3q-0.8-0.2-1.3-0.7-0.5-0.4-0.5-1.1 0-0.6 0.3-1.1 0.3-0.4 0.9-0.7 0.5-0.2 1.4-0.2 1.1 0 1.8 0.5 0.6 0.5 0.7 1.4h-1.1q-0.1-0.5-0.4-0.8-0.4-0.2-1-0.2-0.7 0-1.1 0.2-0.4 0.3-0.4 0.8 0 0.4 0.3 0.6 0.3 0.2 0.9 0.3l1.3 0.4q0.5 0.1 0.8 0.3 0.3 0.2 0.5 0.4 0.1 0.3 0.2 0.5 0.1 0.3 0.1 0.6 0 0.6-0.3 1-0.3 0.5-0.9 0.7-0.6 0.3-1.4 0.3zm9.5-7q0.7 0 1.3 0.3 0.6 0.2 1 0.7 0.3 0.5 0.4 1.2h-1q-0.1-0.3-0.3-0.6-0.2-0.3-0.6-0.5-0.3-0.2-0.8-0.2-0.8 0-1.4 0.7-0.5 0.6-0.5 1.9 0 1.1 0.5 1.8 0.5 0.7 1.5 0.7 0.4 0 0.8-0.1 0.3-0.2 0.5-0.5 0.2-0.3 0.3-0.7h1q-0.1 0.7-0.4 1.2-0.4 0.5-1 0.8-0.6 0.3-1.3 0.3-0.9 0-1.6-0.4-0.7-0.4-1.1-1.2-0.4-0.8-0.4-1.9 0-1.1 0.4-1.9 0.4-0.7 1-1.2 0.7-0.4 1.7-0.4zm6.9 7q-0.9 0-1.6-0.4-0.7-0.4-1.1-1.2-0.4-0.8-0.4-1.9 0-1.1 0.4-1.9 0.4-0.8 1-1.2 0.7-0.4 1.7-0.4 1 0 1.6 0.4 0.7 0.4 1.1 1.2 0.4 0.8 0.4 1.9 0 1-0.4 1.8-0.3 0.8-1 1.2-0.7 0.5-1.7 0.5zm0-1q0.6 0 1-0.3 0.5-0.3 0.7-0.9 0.2-0.6 0.2-1.3 0-0.8-0.2-1.3-0.2-0.6-0.6-0.9-0.4-0.4-1.1-0.4-0.6 0-1 0.3-0.4 0.3-0.6 0.9-0.3 0.6-0.3 1.4 0 0.7 0.2 1.2 0.2 0.6 0.6 1 0.5 0.3 1.1 0.3zm4.6 0.8v-6.7h1.1v1q0.3-0.5 0.8-0.8 0.5-0.3 1.2-0.3 0.4 0 0.8 0.1 0.4 0.1 0.7 0.4 0.3 0.2 0.5 0.6 0.3-0.5 0.8-0.8 0.6-0.3 1.2-0.3 0.4 0 0.8 0.1 0.3 0.1 0.7 0.4 0.3 0.2 0.5 0.7 0.2 0.5 0.2 1.2v4.4h-1.2v-4.3q0-0.6-0.2-0.9-0.2-0.3-0.5-0.5-0.3-0.1-0.7-0.1-0.3 0-0.6 0.1-0.4 0.1-0.6 0.4-0.3 0.3-0.3 0.8v4.5h-1.2v-4.6q0-0.4-0.2-0.7-0.2-0.2-0.5-0.4-0.3-0.1-0.6-0.1-0.4 0-0.7 0.1-0.4 0.2-0.6 0.5-0.2 0.3-0.2 0.7v4.5zm11.1 2.1v-8.8h1.2v1.2q0.1-0.2 0.3-0.5 0.2-0.2 0.5-0.4 0.2-0.2 0.6-0.3 0.4-0.1 0.8-0.1 0.8 0 1.4 0.3 0.7 0.4 1 1.2 0.3 0.7 0.3 1.9 0 1.1-0.3 1.9-0.3 0.8-1 1.2-0.6 0.5-1.5 0.5-0.4 0-0.8-0.2-0.3-0.1-0.6-0.3-0.2-0.2-0.4-0.4-0.2-0.3-0.3-0.5v3.3zm3.1-2.9q0.8 0 1.4-0.6 0.5-0.7 0.5-2 0-1.1-0.5-1.8-0.5-0.7-1.4-0.7-0.9 0-1.4 0.7-0.5 0.7-0.5 1.8 0 0.7 0.2 1.3 0.2 0.6 0.7 1 0.4 0.3 1 0.3zm6.2 0.9q-0.5 0-0.9-0.1-0.3-0.2-0.5-0.4-0.1-0.3-0.2-0.6-0.1-0.4-0.1-0.7v-7.9h1.2v7.8q0 0.5 0.2 0.7 0.2 0.3 0.6 0.3h0.3v0.8q-0.1 0-0.3 0.1-0.1 0-0.3 0zm2.8-3.2q0 0.7 0.3 1.2 0.2 0.5 0.6 0.8 0.4 0.3 1.1 0.3 0.6 0 1.1-0.3 0.5-0.3 0.6-0.8h1.1q-0.1 0.6-0.5 1.1-0.4 0.5-1 0.7-0.6 0.3-1.3 0.3-0.9 0-1.7-0.5-0.7-0.4-1.1-1.1-0.4-0.8-0.4-1.9 0-1 0.4-1.8 0.4-0.8 1-1.3 0.7-0.4 1.7-0.4 1 0 1.6 0.4 0.7 0.4 1 1.1 0.4 0.8 0.4 1.8v0.4zm0-0.8h3.6q0-0.5-0.2-1-0.2-0.5-0.6-0.7-0.4-0.3-1-0.3-0.6 0-1 0.3-0.4 0.3-0.6 0.8-0.2 0.4-0.2 0.9zm9.5-1.9h-1.5v4.2q0 0.3 0.1 0.5 0.1 0.1 0.2 0.2 0.2 0 0.5 0h0.8v0.8q-0.2 0.1-0.4 0.1-0.3 0.1-0.6 0.1-0.7 0-1.1-0.2-0.4-0.2-0.5-0.6-0.2-0.4-0.2-0.9v-4.2h-1.1v-0.9h1.1l0.3-2h0.9v2h1.5zm2.3 2.8q0 0.6 0.2 1.1 0.3 0.5 0.7 0.8 0.4 0.3 1.1 0.3 0.6 0 1.1-0.3 0.4-0.3 0.6-0.8h1.1q-0.1 0.7-0.5 1.1-0.5 0.5-1.1 0.7-0.6 0.3-1.2 0.3-0.9 0-1.7-0.4-0.7-0.5-1.1-1.2-0.4-0.8-0.4-1.9 0-1 0.4-1.8 0.3-0.8 1-1.3 0.7-0.4 1.7-0.4 1 0 1.6 0.4 0.7 0.4 1 1.2 0.3 0.7 0.3 1.7v0.5zm0.1-0.9h3.6q0-0.5-0.2-1-0.2-0.5-0.6-0.7-0.4-0.3-1-0.3-0.6 0-1 0.3-0.4 0.3-0.6 0.8-0.3 0.4-0.2 0.9zm8.7 4.1q-1.3 0-2-0.9-0.8-0.9-0.8-2.6 0-1.1 0.3-1.9 0.3-0.8 0.9-1.2 0.6-0.4 1.5-0.4 0.5 0 0.9 0.1 0.4 0.1 0.7 0.3 0.2 0.2 0.4 0.4 0.2 0.2 0.3 0.4v-4h1.2v9.6h-1l-0.1-1.3q0 0.2-0.2 0.4-0.1 0.3-0.4 0.5-0.3 0.3-0.7 0.4-0.4 0.2-1 0.2zm0.3-1q1 0 1.4-0.6 0.5-0.6 0.5-2-0.1-0.8-0.2-1.3-0.2-0.6-0.6-0.9-0.4-0.3-1.1-0.3-0.9 0-1.4 0.6-0.5 0.6-0.5 1.9 0 1.3 0.5 2 0.5 0.6 1.4 0.6zm9.7 1q-0.6 0-1.1-0.3-0.5-0.2-0.8-0.6-0.3-0.5-0.3-1.1 0-1.1 0.8-1.6 0.7-0.6 2.5-0.6l1.2-0.1v-0.5q0-0.6-0.4-1-0.4-0.3-1.1-0.3-0.6 0-1.1 0.2-0.4 0.3-0.5 0.9h-1.1q0-0.6 0.4-1.1 0.3-0.4 0.9-0.7 0.6-0.2 1.4-0.2 0.9 0 1.5 0.2 0.6 0.3 0.8 0.8 0.3 0.4 0.3 1.1v4.7h-1l-0.1-1.2q-0.4 0.8-1 1.1-0.6 0.3-1.3 0.3zm0.4-0.9q0.3 0 0.6-0.1 0.4-0.1 0.7-0.4 0.2-0.2 0.4-0.4 0.2-0.3 0.2-0.6v-1.1h-1q-0.8 0-1.3 0.2-0.5 0.1-0.8 0.4-0.2 0.3-0.2 0.8 0 0.6 0.3 0.9 0.4 0.3 1.1 0.3zm5 0.7v-6.7h1.1v1q0.2-0.3 0.5-0.5 0.3-0.3 0.7-0.4 0.4-0.2 1-0.2 0.6 0 1.1 0.3 0.6 0.2 0.9 0.8 0.3 0.5 0.3 1.3v4.4h-1.2v-4.2q0-0.8-0.4-1.2-0.4-0.4-1.1-0.4-0.4 0-0.8 0.2-0.4 0.1-0.7 0.4-0.2 0.3-0.2 0.7v4.5zm9.8 0.2q-1.3 0-2.1-0.9-0.7-0.9-0.7-2.6 0-1.1 0.3-1.9 0.3-0.8 0.9-1.2 0.6-0.4 1.5-0.4 0.5 0 0.9 0.1 0.3 0.1 0.6 0.3 0.3 0.2 0.5 0.4 0.1 0.2 0.2 0.4v-4h1.2v9.6h-0.9l-0.1-1.3q-0.1 0.2-0.2 0.4-0.2 0.3-0.4 0.5-0.3 0.3-0.7 0.4-0.4 0.2-1 0.2zm0.2-1q1 0 1.5-0.6 0.4-0.6 0.4-2 0-0.8-0.2-1.3-0.2-0.6-0.6-0.9-0.4-0.3-1.1-0.3-0.8 0-1.3 0.6-0.5 0.6-0.5 1.9 0 1.3 0.4 2 0.5 0.6 1.4 0.6zm-114.9 20.9v-8.8h1.1l0.1 1.2q0.1-0.2 0.3-0.4 0.1-0.3 0.4-0.5 0.3-0.2 0.6-0.3 0.4-0.1 0.9-0.1 0.8 0 1.4 0.4 0.6 0.3 0.9 1.1 0.4 0.7 0.4 1.9 0 1.1-0.3 1.9-0.4 0.8-1 1.3-0.6 0.4-1.5 0.4-0.5 0-0.8-0.2-0.4-0.1-0.6-0.3-0.3-0.2-0.5-0.4-0.1-0.3-0.2-0.5v3.3zm3.1-2.9q0.8 0 1.3-0.6 0.5-0.6 0.5-2 0-1.1-0.4-1.8-0.5-0.7-1.4-0.7-1 0-1.5 0.7-0.4 0.7-0.4 1.8 0 0.7 0.2 1.3 0.2 0.6 0.6 1 0.4 0.3 1.1 0.3zm4.5 0.8v-6.7h1.1v1.3q0.2-0.5 0.5-0.8 0.3-0.3 0.7-0.5 0.4-0.1 0.8-0.1 0.2 0 0.3 0 0.1 0 0.2 0.1v1.1q-0.1 0-0.2 0-0.2 0-0.3 0-0.4-0.1-0.7 0-0.4 0.1-0.7 0.3-0.2 0.1-0.4 0.4-0.1 0.3-0.1 0.8v4.1zm7.4 0.2q-0.9 0-1.6-0.4-0.7-0.4-1.1-1.2-0.4-0.8-0.4-1.9 0-1 0.4-1.8 0.4-0.8 1-1.3 0.7-0.4 1.7-0.4 1 0 1.6 0.4 0.7 0.4 1.1 1.2 0.4 0.8 0.4 1.9 0 1-0.4 1.8-0.3 0.8-1 1.2-0.7 0.5-1.7 0.5zm0-1q0.6 0 1.1-0.3 0.4-0.3 0.6-0.9 0.2-0.5 0.2-1.3 0-0.7-0.2-1.3-0.2-0.6-0.6-0.9-0.4-0.4-1.1-0.4-0.6 0-1 0.3-0.4 0.3-0.6 0.9-0.3 0.6-0.3 1.4 0 0.7 0.2 1.3 0.2 0.5 0.6 0.9 0.5 0.3 1.1 0.3zm7.2-6q0.8 0 1.3 0.3 0.6 0.2 1 0.7 0.4 0.6 0.4 1.2h-1q-0.1-0.3-0.3-0.6-0.2-0.3-0.5-0.5-0.4-0.1-0.9-0.1-0.8 0-1.4 0.6-0.5 0.6-0.5 1.9 0 1.2 0.5 1.9 0.5 0.7 1.5 0.7 0.4 0 0.8-0.2 0.3-0.2 0.5-0.5 0.2-0.3 0.3-0.6h1q-0.1 0.6-0.4 1.1-0.4 0.5-1 0.8-0.5 0.3-1.3 0.3-0.9 0-1.6-0.4-0.7-0.4-1.1-1.2-0.4-0.8-0.4-1.9 0-1 0.4-1.8 0.4-0.8 1.1-1.3 0.7-0.4 1.6-0.4zm5.1 3.8q0 0.6 0.2 1.1 0.3 0.5 0.7 0.8 0.4 0.3 1.1 0.3 0.6 0 1.1-0.3 0.4-0.3 0.6-0.8h1.1q-0.1 0.7-0.5 1.1-0.5 0.5-1.1 0.7-0.6 0.3-1.2 0.3-1 0-1.7-0.4-0.7-0.5-1.1-1.2-0.4-0.8-0.4-1.9 0-1 0.4-1.8 0.3-0.8 1-1.3 0.7-0.4 1.7-0.4 0.9 0 1.6 0.4 0.7 0.4 1 1.2 0.3 0.7 0.3 1.7v0.5zm0.1-0.9h3.6q0-0.5-0.2-1-0.2-0.5-0.6-0.7-0.4-0.3-1-0.3-0.6 0-1 0.3-0.4 0.3-0.7 0.8-0.2 0.4-0.1 0.9zm8.6 4.1q-0.7 0-1.3-0.2-0.6-0.3-1-0.7-0.4-0.5-0.5-1.2h1.1q0.1 0.4 0.4 0.6 0.2 0.3 0.6 0.4 0.3 0.2 0.7 0.2 0.7 0 1.1-0.3 0.4-0.2 0.4-0.8 0-0.3-0.2-0.6-0.2-0.2-0.6-0.3l-1.4-0.3q-0.8-0.2-1.3-0.6-0.5-0.5-0.5-1.2 0-0.6 0.3-1 0.2-0.5 0.8-0.8 0.6-0.2 1.4-0.2 1.1 0 1.8 0.5 0.7 0.5 0.7 1.4h-1.1q0-0.5-0.4-0.7-0.4-0.3-1-0.3-0.6 0-1 0.2-0.4 0.3-0.4 0.8 0 0.4 0.3 0.6 0.2 0.2 0.8 0.3l1.4 0.4q0.4 0.1 0.7 0.3 0.3 0.2 0.5 0.4 0.2 0.3 0.3 0.6 0 0.2 0 0.5 0 0.6-0.3 1-0.3 0.5-0.9 0.7-0.5 0.3-1.4 0.3zm6.5 0q-0.7 0-1.3-0.2-0.6-0.3-1-0.7-0.4-0.5-0.5-1.2h1.1q0.1 0.4 0.3 0.6 0.2 0.3 0.6 0.4 0.4 0.2 0.8 0.2 0.7 0 1.1-0.3 0.4-0.2 0.4-0.8 0-0.3-0.2-0.6-0.2-0.2-0.7-0.3l-1.4-0.3q-0.8-0.2-1.3-0.6-0.5-0.5-0.5-1.2 0-0.6 0.3-1 0.3-0.5 0.9-0.8 0.5-0.2 1.4-0.2 1.1 0 1.7 0.5 0.7 0.5 0.7 1.4h-1q-0.1-0.5-0.5-0.7-0.3-0.3-0.9-0.3-0.7 0-1.1 0.2-0.4 0.3-0.4 0.8 0 0.4 0.3 0.6 0.3 0.2 0.8 0.3l1.4 0.4q0.5 0.1 0.8 0.3 0.3 0.2 0.4 0.4 0.2 0.3 0.3 0.6 0.1 0.2 0.1 0.5 0 0.6-0.3 1-0.3 0.5-0.9 0.7-0.6 0.3-1.4 0.3zm5-3.2q0 0.6 0.2 1.1 0.2 0.5 0.7 0.8 0.4 0.3 1 0.3 0.7 0 1.2-0.3 0.4-0.3 0.5-0.8h1.2q-0.1 0.7-0.6 1.1-0.4 0.5-1 0.7-0.6 0.3-1.2 0.3-1 0-1.7-0.4-0.7-0.5-1.1-1.2-0.4-0.8-0.4-1.9 0-1 0.4-1.8 0.3-0.8 1-1.3 0.7-0.4 1.7-0.4 0.9 0 1.6 0.4 0.6 0.4 1 1.2 0.3 0.7 0.3 1.7v0.5zm0-0.9h3.7q0-0.5-0.2-1-0.2-0.5-0.6-0.7-0.4-0.3-1-0.3-0.6 0-1.1 0.3-0.4 0.3-0.6 0.8-0.2 0.4-0.2 0.9zm8.8 4.1q-1.3 0-2.1-0.9-0.7-0.9-0.7-2.6 0-1.1 0.3-1.9 0.3-0.8 0.9-1.2 0.6-0.4 1.5-0.4 0.5 0 0.9 0.1 0.4 0.1 0.6 0.3 0.3 0.2 0.5 0.4 0.1 0.2 0.2 0.4v-4h1.2v9.6h-0.9l-0.1-1.3q-0.1 0.2-0.2 0.4-0.2 0.3-0.4 0.5-0.3 0.3-0.7 0.4-0.4 0.2-1 0.2zm0.2-1q1.1 0 1.5-0.6 0.4-0.6 0.4-2 0-0.8-0.2-1.3-0.2-0.6-0.6-0.9-0.4-0.3-1-0.3-0.9 0-1.4 0.6-0.5 0.6-0.5 1.9 0 1.3 0.5 2 0.4 0.6 1.3 0.6zm10.3 1q-0.7 0-1.3-0.2-0.6-0.3-1-0.7-0.4-0.5-0.5-1.2h1.1q0.1 0.4 0.3 0.6 0.3 0.3 0.6 0.4 0.4 0.2 0.8 0.2 0.7 0 1.1-0.3 0.4-0.2 0.4-0.8 0-0.3-0.2-0.6-0.2-0.2-0.7-0.3l-1.4-0.3q-0.8-0.2-1.3-0.6-0.5-0.5-0.5-1.2 0-0.6 0.3-1 0.3-0.5 0.9-0.8 0.5-0.2 1.4-0.2 1.1 0 1.8 0.5 0.6 0.5 0.7 1.4h-1.1q-0.1-0.5-0.4-0.7-0.4-0.3-1-0.3-0.7 0-1.1 0.2-0.4 0.3-0.4 0.8 0 0.4 0.3 0.6 0.3 0.2 0.9 0.3l1.3 0.4q0.5 0.1 0.8 0.3 0.3 0.2 0.5 0.4 0.1 0.3 0.2 0.6 0.1 0.2 0.1 0.5 0 0.6-0.3 1-0.3 0.5-0.9 0.7-0.6 0.3-1.4 0.3zm6.6 0q-0.5 0-1-0.2-0.4-0.1-0.8-0.4-0.3-0.3-0.5-0.7-0.2-0.5-0.2-1v-4.6h1.2v4.5q0 0.6 0.4 1 0.4 0.4 1.2 0.4 0.7 0 1.2-0.4 0.4-0.3 0.4-1.1v-4.4h1.2v6.7h-0.9l-0.1-1.2q-0.2 0.5-0.5 0.8-0.3 0.3-0.7 0.4-0.4 0.2-0.9 0.2zm7.6-7q0.7 0 1.3 0.3 0.6 0.2 0.9 0.7 0.4 0.6 0.5 1.2h-1.1q0-0.3-0.2-0.6-0.3-0.3-0.6-0.5-0.3-0.1-0.8-0.1-0.9 0-1.4 0.6-0.5 0.6-0.5 1.9 0 1.2 0.4 1.9 0.5 0.7 1.5 0.7 0.5 0 0.8-0.2 0.4-0.2 0.6-0.5 0.2-0.3 0.2-0.6h1.1q-0.1 0.6-0.5 1.1-0.3 0.5-0.9 0.8-0.6 0.3-1.3 0.3-0.9 0-1.6-0.4-0.7-0.4-1.1-1.2-0.4-0.8-0.4-1.9 0-1 0.4-1.8 0.3-0.8 1-1.3 0.7-0.4 1.7-0.4zm6.9 0q0.7 0 1.3 0.3 0.6 0.2 0.9 0.7 0.4 0.6 0.5 1.2h-1.1q0-0.3-0.2-0.6-0.2-0.3-0.6-0.5-0.3-0.1-0.8-0.1-0.9 0-1.4 0.6-0.5 0.6-0.5 1.9 0 1.2 0.5 1.9 0.5 0.7 1.4 0.7 0.5 0 0.8-0.2 0.4-0.2 0.6-0.5 0.2-0.3 0.2-0.6h1.1q-0.1 0.6-0.5 1.1-0.3 0.5-0.9 0.8-0.6 0.3-1.3 0.3-0.9 0-1.6-0.4-0.7-0.4-1.1-1.2-0.4-0.8-0.4-1.9 0-1 0.4-1.8 0.3-0.8 1-1.3 0.7-0.4 1.7-0.4zm5.1 3.8q0 0.6 0.2 1.1 0.2 0.5 0.6 0.8 0.5 0.3 1.1 0.3 0.7 0 1.1-0.3 0.5-0.3 0.6-0.8h1.2q-0.2 0.7-0.6 1.1-0.4 0.5-1 0.7-0.6 0.3-1.3 0.3-0.9 0-1.6-0.4-0.7-0.5-1.1-1.2-0.4-0.8-0.4-1.9 0-1 0.3-1.8 0.4-0.8 1.1-1.3 0.7-0.4 1.7-0.4 0.9 0 1.6 0.4 0.6 0.4 1 1.2 0.3 0.7 0.3 1.7v0.5zm0-0.9h3.7q0-0.5-0.2-1-0.2-0.5-0.6-0.7-0.4-0.3-1-0.3-0.7 0-1.1 0.3-0.4 0.3-0.6 0.8-0.2 0.4-0.2 0.9zm8.7 4.1q-0.7 0-1.3-0.2-0.6-0.3-1-0.7-0.4-0.5-0.5-1.2h1.1q0.1 0.4 0.3 0.6 0.3 0.3 0.6 0.4 0.4 0.2 0.8 0.2 0.7 0 1.1-0.3 0.4-0.2 0.4-0.8 0-0.3-0.2-0.6-0.2-0.2-0.7-0.3l-1.4-0.3q-0.8-0.2-1.3-0.6-0.5-0.5-0.5-1.2 0-0.6 0.3-1 0.3-0.5 0.9-0.8 0.5-0.2 1.4-0.2 1.1 0 1.8 0.5 0.6 0.5 0.7 1.4h-1.1q-0.1-0.5-0.4-0.7-0.4-0.3-1-0.3-0.7 0-1.1 0.2-0.4 0.3-0.4 0.8 0 0.4 0.3 0.6 0.3 0.2 0.9 0.3l1.3 0.4q0.5 0.1 0.8 0.3 0.3 0.2 0.5 0.4 0.1 0.3 0.2 0.6 0.1 0.2 0.1 0.5 0 0.6-0.3 1-0.3 0.5-0.9 0.7-0.6 0.3-1.4 0.3zm6.4 0q-0.7 0-1.3-0.2-0.6-0.3-1-0.7-0.4-0.5-0.5-1.2h1.1q0.1 0.4 0.4 0.6 0.2 0.3 0.6 0.4 0.3 0.2 0.7 0.2 0.7 0 1.1-0.3 0.4-0.2 0.4-0.8 0-0.3-0.2-0.6-0.2-0.2-0.6-0.3l-1.4-0.3q-0.8-0.2-1.3-0.6-0.5-0.5-0.5-1.2 0-0.6 0.3-1 0.2-0.5 0.8-0.8 0.6-0.2 1.4-0.2 1.1 0 1.8 0.5 0.7 0.5 0.7 1.4h-1.1q0-0.5-0.4-0.7-0.4-0.3-1-0.3-0.6 0-1 0.2-0.4 0.3-0.4 0.8 0 0.4 0.3 0.6 0.2 0.2 0.8 0.3l1.4 0.4q0.4 0.1 0.7 0.3 0.3 0.2 0.5 0.4 0.2 0.3 0.3 0.6 0 0.2 0 0.5 0 0.6-0.3 1-0.3 0.5-0.9 0.7-0.5 0.3-1.4 0.3zm8-6.9v0.9h-1.6v5.8h-1.2v-5.8h-1.5v-0.9h1.5v-1q0-0.8 0.4-1.2 0.4-0.5 1.2-0.5h1.3v0.9h-1q-0.4 0-0.6 0.2-0.1 0.2-0.1 0.7v0.9zm3.8 6.9q-0.5 0-1-0.2-0.4-0.1-0.8-0.4-0.4-0.3-0.6-0.7-0.2-0.5-0.2-1v-4.6h1.2v4.5q0 0.6 0.4 1 0.4 0.4 1.3 0.4 0.7 0 1.2-0.4 0.4-0.3 0.4-1.1v-4.4h1.2v6.7h-1l-0.1-1.2q-0.1 0.5-0.4 0.8-0.3 0.3-0.7 0.4-0.4 0.2-0.9 0.2zm6.7-0.1q-0.6 0-0.9-0.1-0.4-0.2-0.5-0.4-0.2-0.3-0.3-0.6 0-0.3 0-0.7v-7.9h1.2v7.8q0 0.5 0.1 0.8 0.2 0.2 0.6 0.2h0.4v0.8q-0.2 0.1-0.3 0.1-0.2 0-0.3 0zm3.5 0q-0.5 0-0.8-0.1-0.4-0.2-0.6-0.4-0.1-0.3-0.2-0.6 0-0.3-0.1-0.7v-7.9h1.2v7.8q0 0.5 0.2 0.8 0.2 0.2 0.6 0.2h0.4v0.8q-0.2 0.1-0.4 0.1-0.1 0-0.3 0zm2.5 2.1q-0.6 0-0.8-0.1-0.2-0.1-0.2-0.1v-0.8h0.7q0.4 0.1 0.6 0 0.3-0.1 0.4-0.2 0.1-0.1 0.2-0.2 0.1-0.2 0.2-0.3l0.2-0.6-2.6-6.6h1.2l2 5.2 1.9-5.2h1.2l-2.8 7.2q-0.3 0.7-0.6 1-0.3 0.4-0.7 0.5-0.4 0.2-0.9 0.2z"/><path class="h" d="m134 237c-15.5 0-28-12.5-28-28 0-15.5 12.5-28 28-28 15.5 0 28 12.5 28 28 0 15.5-12.5 28-28 28z"/><path class="i" d="m125 210.7l4.6 4.6 13.2-13.3"/></g><g clip-path="url(#cp3)"><path class="j" d="m70 336c0-8.3 6.7-15 15-15h101c8.3 0 15 6.7 15 15 0 8.3-6.7 15-15 15h-101c-8.3 0-15-6.7-15-15z"/><path fill-rule="evenodd" class="g" d="m116.6 332q0 0 0.3 0 0.3 0 0.7 0 0.3 0 0.7 0.1 0.4 0 0.6 0 1.5 0 2.4 0.5 0.9 0.5 1.3 1.3 0.5 0.9 0.5 2.1 0 1.2-0.5 2.1-0.4 0.9-1.4 1.4-0.9 0.5-2.3 0.5h-2.3zm1.6 1.3v5.4h0.7q0.7 0 1.3-0.3 0.5-0.3 0.9-0.9 0.3-0.6 0.3-1.6 0-0.9-0.3-1.5-0.3-0.6-0.8-0.8-0.6-0.3-1.4-0.3zm7.7 1v5.7h-1.6v-5.7zm0.1-2.3v1.5h-1.6v-1.5zm3.6 8.1q-0.6 0-1.1-0.2-0.6-0.2-1-0.6-0.4-0.5-0.5-1.1h1.4q0.1 0.3 0.3 0.4 0.2 0.2 0.4 0.3 0.3 0.1 0.5 0.1 0.5 0 0.7-0.2 0.3-0.1 0.3-0.4 0-0.3-0.2-0.4-0.1-0.1-0.5-0.2l-1-0.2q-0.8-0.2-1.2-0.6-0.5-0.3-0.5-1 0-0.6 0.3-1 0.3-0.4 0.8-0.6 0.5-0.2 1.3-0.2 1.1 0 1.7 0.4 0.6 0.5 0.6 1.3h-1.3q-0.1-0.3-0.3-0.5-0.3-0.2-0.7-0.2-0.4 0-0.7 0.2-0.3 0.1-0.3 0.4 0 0.3 0.3 0.4 0.2 0.1 0.6 0.2l1 0.2q0.4 0.1 0.7 0.3 0.3 0.2 0.5 0.5 0.2 0.2 0.2 0.5 0.1 0.2 0.1 0.4 0 0.5-0.3 0.9-0.3 0.4-0.8 0.7-0.6 0.2-1.3 0.2zm3.4-0.1v-5.7h1.6v0.8q0.3-0.4 0.7-0.7 0.4-0.2 1.1-0.2 0.3 0 0.6 0.1 0.3 0.1 0.6 0.3 0.2 0.2 0.4 0.5 0.3-0.4 0.7-0.7 0.5-0.2 1-0.2 0.3 0 0.7 0.1 0.3 0.1 0.6 0.3 0.2 0.2 0.4 0.6 0.2 0.4 0.2 1v3.8h-1.6v-3.6q0-0.3-0.2-0.5-0.1-0.3-0.3-0.3-0.2-0.1-0.4-0.1-0.2 0-0.5 0.1-0.2 0-0.3 0.2-0.2 0.2-0.2 0.5v3.7h-1.6v-3.7q0-0.3-0.1-0.5-0.2-0.2-0.4-0.2-0.2-0.1-0.4-0.1-0.2 0-0.4 0.1-0.3 0-0.4 0.2-0.2 0.2-0.2 0.5v3.7zm11.4-5.7v5.7h-1.5v-5.7zm0-2.3v1.5h-1.6v-1.5zm3.6 8.1q-0.5 0-1.1-0.2-0.5-0.2-0.9-0.6-0.4-0.5-0.5-1.1h1.4q0.1 0.3 0.2 0.4 0.2 0.2 0.5 0.3 0.2 0.1 0.4 0.1 0.5 0 0.8-0.2 0.3-0.1 0.3-0.4 0-0.3-0.2-0.4-0.2-0.1-0.6-0.2l-1-0.2q-0.7-0.2-1.2-0.6-0.4-0.3-0.4-1 0-0.6 0.2-1 0.3-0.4 0.8-0.6 0.6-0.2 1.4-0.2 1 0 1.6 0.4 0.7 0.5 0.7 1.3h-1.4q0-0.3-0.3-0.5-0.3-0.2-0.7-0.2-0.4 0-0.6 0.2-0.3 0.1-0.3 0.4 0 0.3 0.2 0.4 0.2 0.1 0.7 0.2l0.9 0.2q0.5 0.1 0.8 0.3 0.3 0.2 0.5 0.5 0.1 0.2 0.2 0.5 0 0.2 0 0.4 0 0.5-0.3 0.9-0.3 0.4-0.8 0.7-0.5 0.2-1.3 0.2zm5.7 0q-0.6 0-1.2-0.2-0.5-0.2-0.9-0.6-0.4-0.5-0.5-1.1h1.4q0.1 0.3 0.3 0.4 0.1 0.2 0.4 0.3 0.2 0.1 0.4 0.1 0.5 0 0.8-0.2 0.3-0.1 0.3-0.4 0-0.3-0.2-0.4-0.2-0.1-0.5-0.2l-1-0.2q-0.8-0.2-1.3-0.6-0.4-0.3-0.4-1 0-0.6 0.2-1 0.3-0.4 0.9-0.6 0.5-0.2 1.3-0.2 1 0 1.6 0.4 0.7 0.5 0.7 1.3h-1.4q0-0.3-0.3-0.5-0.3-0.2-0.7-0.2-0.4 0-0.6 0.2-0.3 0.1-0.3 0.4 0 0.3 0.2 0.4 0.2 0.1 0.7 0.2l0.9 0.2q0.5 0.1 0.8 0.3 0.3 0.2 0.5 0.5 0.1 0.2 0.2 0.5 0 0.2 0 0.4 0.1 0.5-0.3 0.9-0.3 0.4-0.8 0.7-0.5 0.2-1.2 0.2z"/></g></svg>